<svg width="41" height="41" viewBox="0 0 41 41" fill="none" xmlns="http://www.w3.org/2000/svg">
<g clip-path="url(#clip0_536_602)">
<path fill-rule="evenodd" clip-rule="evenodd" d="M0 0H41V41H0V0Z" fill="white"/>
<path fill-rule="evenodd" clip-rule="evenodd" d="M0 0H41V41H0V0Z" fill="white"/>
<path fill-rule="evenodd" clip-rule="evenodd" d="M20.4997 1.14453C31.1368 1.14453 39.849 9.86948 39.849 20.5066C39.849 31.1437 31.1368 39.8559 20.4997 39.8559C9.86257 39.8559 1.15039 31.1437 1.15039 20.5066C1.15039 9.86948 9.86257 1.14453 20.4997 1.14453Z" fill="#231F20"/>
<path fill-rule="evenodd" clip-rule="evenodd" d="M20.4851 2.2627C15.3655 2.2627 10.3798 4.48753 6.94042 8.29699C3.94986 11.6151 2.26953 16.0116 2.26953 20.4911C2.26953 25.6107 4.48161 30.5964 8.29106 34.023C11.6219 37.0263 16.0206 38.7067 20.4851 38.7067C25.6048 38.7067 30.5905 36.4946 34.0171 32.6851C37.0204 29.3543 38.7007 24.9556 38.7007 20.4911C38.7007 15.3565 36.4887 10.3729 32.6792 6.94634C29.3483 3.95579 24.9646 2.2627 20.4851 2.2627Z" fill="white"/>
<path fill-rule="evenodd" clip-rule="evenodd" d="M3.73047 15.5077L4.15374 14.7568L6.33817 15.8629L6.81674 15.0291L15.2418 19.7808L15.0227 20.1764L10.12 17.7878C12.0045 19.4681 14.325 21.2569 16.9753 21.2569C20.0339 21.2569 22.4927 18.8407 23.8306 16.2861C24.5261 16.2308 25.2238 16.1777 25.9342 16.1777C29.499 16.1777 33.1979 16.8732 36.6266 17.8708L37.8007 18.2111L38.1155 18.294L37.0924 19.181C34.0466 18.3068 30.9071 17.624 27.7379 17.4326L27.3827 17.9367C29.9627 18.1132 32.5449 18.5642 35.042 19.2193L35.929 19.4511L36.5713 19.6149L35.5482 20.4891C32.613 19.6979 29.5671 19.1363 26.5085 19.1236L26.1937 19.5192C29.2119 19.6277 32.1472 20.1743 35.0824 20.872L34.1274 21.6781C31.2325 21.0783 28.3249 20.7082 25.362 20.6678L25.0621 21.0783H25.6492C28.0654 21.0783 30.5094 21.4335 32.8725 21.9248L33.6637 22.1014L32.6661 22.9351C30.8901 22.5948 29.0885 22.3757 27.2721 22.3757C24.8962 22.3757 22.4523 22.8118 20.2955 23.837C22.8628 26.6765 26.4 29.0396 30.3583 29.0396H30.3988L29.1162 30.486C24.3092 29.0247 19.885 26.5936 15.7884 23.7136C13.5359 22.129 11.4472 20.2998 9.17984 18.7301C7.61011 17.6517 6.01274 16.669 4.31965 15.8076L3.7326 15.5077H3.73047Z" fill="#231F20"/>
</g>
<defs>
<clipPath id="clip0_536_602">
<rect width="41" height="41" fill="white"/>
</clipPath>
</defs>
</svg>
