<svg width="118" height="118" viewBox="0 0 118 118" fill="none" xmlns="http://www.w3.org/2000/svg">
<path d="M59 118C91.5848 118 118 91.5848 118 59C118 26.4152 91.5848 0 59 0C26.4152 0 0 26.4152 0 59C0 91.5848 26.4152 118 59 118Z" fill="#4272F6"/>
<path d="M56.9234 82.6674C56.1316 82.6674 55.3506 82.483 54.6424 82.1288C53.9342 81.7746 53.3182 81.2604 52.8432 80.6268L40.3335 63.9468C39.9316 63.4109 39.6392 62.8012 39.473 62.1523C39.3068 61.5034 39.27 60.8282 39.3648 60.1651C39.4595 59.502 39.6839 58.8641 40.0252 58.2878C40.3665 57.7114 40.8179 57.2079 41.3538 56.8061C42.436 55.9944 43.7963 55.646 45.1355 55.8373C45.7986 55.9321 46.4365 56.1565 47.0128 56.4978C47.5892 56.8391 48.0927 57.2905 48.4945 57.8264L56.6789 68.738L77.6992 37.2079C78.4496 36.0823 79.6164 35.3009 80.943 35.0356C82.2695 34.7703 83.6471 35.0428 84.7727 35.7932C85.8983 36.5436 86.6797 37.7104 86.945 39.037C87.2103 40.3635 86.9378 41.7411 86.1874 42.8667L61.1679 80.396C60.7153 81.0747 60.1066 81.6351 59.3928 82.03C58.679 82.4249 57.8808 82.643 57.0653 82.6659C57.018 82.6667 56.9707 82.6674 56.9234 82.6674Z" fill="white"/>
</svg>
