<svg width="104" height="95" viewBox="0 0 104 95" fill="none" xmlns="http://www.w3.org/2000/svg">
<path d="M81.3243 78.0165H27.4965C26.8188 78.0157 26.1691 77.7468 25.6899 77.2686C25.2107 76.7905 24.9412 76.1422 24.9404 75.466V2.55054C24.9412 1.87433 25.2107 1.22603 25.6899 0.747876C26.1691 0.269722 26.8188 0.000761029 27.4965 0H81.3243C82.002 0.000761029 82.6517 0.269722 83.1309 0.747876C83.6101 1.22603 83.8796 1.87433 83.8804 2.55054V75.466C83.8796 76.1422 83.6101 76.7905 83.1309 77.2686C82.6517 77.7468 82.002 78.0157 81.3243 78.0165Z" fill="white"/>
<path d="M41.774 21.7428C43.7136 21.7428 45.2859 20.1739 45.2859 18.2386C45.2859 16.3033 43.7136 14.7344 41.774 14.7344C39.8345 14.7344 38.2622 16.3033 38.2622 18.2386C38.2622 20.1739 39.8345 21.7428 41.774 21.7428Z" fill="#E6E6E6"/>
<path d="M36.4214 27.8159C36.9176 28.0974 37.437 28.3362 37.9738 28.5298L38.0686 28.5626C39.1499 28.9414 40.2878 29.1342 41.4338 29.1329C41.6644 29.1329 41.8865 29.1249 42.094 29.1092C42.599 29.0783 43.1009 29.0093 43.5954 28.9026C43.8668 28.8435 44.1373 28.7727 44.3991 28.6925C44.4624 28.6739 44.521 28.6556 44.5852 28.6355C45.652 28.2904 46.6544 27.7721 47.5521 27.1014C47.4801 26.9655 47.4012 26.8332 47.3157 26.7051C46.8541 26.0014 46.224 25.4236 45.4822 25.0241C44.7405 24.6245 43.9106 24.4159 43.0677 24.417H41.2194C40.2445 24.4172 39.2902 24.697 38.4701 25.223C37.65 25.7491 36.9988 26.4992 36.5939 27.3841C36.5291 27.5251 36.4716 27.6692 36.4214 27.8159Z" fill="#E6E6E6"/>
<path d="M42.9657 28.8164C42.8478 28.8251 42.7343 28.8648 42.6367 28.9316C43.1323 28.9008 43.6248 28.8326 44.11 28.7275L42.9657 28.8164Z" fill="#2F2E41"/>
<path d="M41.9866 8.72949C39.7248 8.72972 37.5263 9.47497 35.7324 10.8496C33.9385 12.2241 32.6495 14.1512 32.0655 16.3316C31.4815 18.512 31.6352 20.8238 32.5027 22.9081C33.3701 24.9924 34.9029 26.7327 36.863 27.8589C37.3833 28.1595 37.9295 28.4132 38.4951 28.6169L38.5912 28.6501C39.6822 29.0323 40.8303 29.2269 41.9866 29.2255C42.2103 29.2255 42.4339 29.2181 42.6538 29.2015C43.163 29.1703 43.669 29.1006 44.1676 28.9931C44.4468 28.9323 44.7203 28.8603 44.9791 28.781C45.0419 28.7626 45.101 28.7442 45.1657 28.7239C47.4903 27.9683 49.4686 26.4102 50.745 24.3295C52.0214 22.2488 52.5122 19.7821 52.1291 17.3727C51.746 14.9633 50.5142 12.7692 48.6551 11.1849C46.7959 9.60062 44.4314 8.72998 41.9866 8.72949ZM47.9456 26.6545C47.0595 27.3368 46.0623 27.8615 44.9976 28.2056C44.9402 28.224 44.881 28.2425 44.8219 28.2609C44.5761 28.3365 44.3173 28.4029 44.0512 28.4601C43.5795 28.5628 43.1006 28.6294 42.6187 28.6593C42.4099 28.674 42.1973 28.6814 41.9866 28.6814C40.8921 28.6821 39.8054 28.4981 38.7724 28.1374L38.6818 28.106C38.1193 27.9043 37.5771 27.6498 37.0626 27.3461C35.2708 26.2935 33.8646 24.6952 33.0506 22.786C32.2366 20.8768 32.0578 18.7574 32.5404 16.7392C33.023 14.7211 34.1416 12.9106 35.7319 11.5739C37.3221 10.2372 39.3001 9.44462 41.3752 9.31275C43.4503 9.18087 45.513 9.71661 47.2604 10.8413C49.0077 11.9659 50.3474 13.6201 51.0827 15.5609C51.818 17.5016 51.9101 19.6265 51.3454 21.6233C50.7808 23.6201 49.5891 25.3836 47.9456 26.6545Z" fill="#CCCCCC"/>
<path d="M81.3243 78.0165H27.4965C26.8188 78.0157 26.1691 77.7468 25.6899 77.2686C25.2107 76.7905 24.9412 76.1422 24.9404 75.466V2.55054C24.9412 1.87433 25.2107 1.22603 25.6899 0.747876C26.1691 0.269722 26.8188 0.000761029 27.4965 0H81.3243C82.002 0.000761029 82.6517 0.269722 83.1309 0.747876C83.6101 1.22603 83.8796 1.87433 83.8804 2.55054V75.466C83.8796 76.1422 83.6101 76.7905 83.1309 77.2686C82.6517 77.7468 82.002 78.0157 81.3243 78.0165ZM27.4965 0.300061C26.8986 0.300737 26.3253 0.538059 25.9025 0.959959C25.4797 1.38186 25.2418 1.95388 25.2411 2.55054V75.466C25.2418 76.0626 25.4797 76.6346 25.9025 77.0565C26.3253 77.4784 26.8986 77.7158 27.4965 77.7164H81.3243C81.9223 77.7158 82.4956 77.4784 82.9184 77.0565C83.3412 76.6346 83.579 76.0626 83.5797 75.466V2.55054C83.579 1.95388 83.3412 1.38186 82.9184 0.959959C82.4956 0.538059 81.9223 0.30074 81.3243 0.300064L27.4965 0.300061Z" fill="#CCCCCC"/>
<path d="M70.9042 18.9379H55.6728C55.3532 18.9379 55.0467 18.8113 54.8207 18.5858C54.5947 18.3603 54.4678 18.0545 54.4678 17.7356C54.4678 17.4167 54.5947 17.1109 54.8207 16.8854C55.0467 16.6599 55.3532 16.5332 55.6728 16.5332H70.9042C71.2238 16.5332 71.5302 16.6599 71.7562 16.8854C71.9822 17.1109 72.1092 17.4167 72.1092 17.7356C72.1092 18.0545 71.9822 18.3603 71.7562 18.5858C71.5302 18.8113 71.2238 18.9379 70.9042 18.9379Z" fill="#E6E6E6"/>
<path d="M75.8747 22.9965H55.6728C55.3532 22.9965 55.0467 22.8699 54.8207 22.6444C54.5947 22.4189 54.4678 22.1131 54.4678 21.7942C54.4678 21.4753 54.5947 21.1695 54.8207 20.944C55.0467 20.7185 55.3532 20.5918 55.6728 20.5918H75.8747C76.1943 20.5918 76.5008 20.7185 76.7268 20.944C76.9527 21.1695 77.0797 21.4753 77.0797 21.7942C77.0797 22.1131 76.9527 22.4189 76.7268 22.6444C76.5008 22.8699 76.1943 22.9965 75.8747 22.9965Z" fill="#E6E6E6"/>
<path d="M70.882 38.561H32.9467C32.6271 38.561 32.3206 38.4343 32.0946 38.2088C31.8687 37.9833 31.7417 37.6775 31.7417 37.3586C31.7417 37.0397 31.8687 36.7339 32.0946 36.5084C32.3206 36.2829 32.6271 36.1562 32.9467 36.1562H70.882C71.2016 36.1563 71.5081 36.2829 71.7341 36.5084C71.96 36.7339 72.087 37.0397 72.087 37.3586C72.087 37.6775 71.96 37.9833 71.7341 38.2088C71.5081 38.4343 71.2016 38.561 70.882 38.561Z" fill="#E6E6E6"/>
<path d="M75.8526 42.6176H32.9467C32.6271 42.6176 32.3206 42.491 32.0946 42.2655C31.8687 42.04 31.7417 41.7341 31.7417 41.4153C31.7417 41.0964 31.8687 40.7905 32.0946 40.5651C32.3206 40.3396 32.6271 40.2129 32.9467 40.2129H75.8526C76.1721 40.2129 76.4786 40.3396 76.7046 40.5651C76.9306 40.7905 77.0575 41.0964 77.0575 41.4153C77.0575 41.7341 76.9306 42.04 76.7046 42.2655C76.4786 42.491 76.1721 42.6176 75.8526 42.6176Z" fill="#E6E6E6"/>
<path d="M70.882 51.9438H32.9467C32.6271 51.9438 32.3206 51.8171 32.0946 51.5916C31.8687 51.3661 31.7417 51.0603 31.7417 50.7414C31.7417 50.4225 31.8687 50.1167 32.0946 49.8912C32.3206 49.6657 32.6271 49.5391 32.9467 49.5391H70.882C71.2016 49.5391 71.5081 49.6657 71.7341 49.8912C71.96 50.1167 72.087 50.4225 72.087 50.7414C72.087 51.0603 71.96 51.3661 71.7341 51.5916C71.5081 51.8171 71.2016 51.9438 70.882 51.9438Z" fill="#E6E6E6"/>
<path d="M75.8526 56.0024H32.9467C32.6271 56.0024 32.3206 55.8757 32.0946 55.6502C31.8687 55.4247 31.7417 55.1189 31.7417 54.8C31.7417 54.4811 31.8687 54.1753 32.0946 53.9498C32.3206 53.7243 32.6271 53.5977 32.9467 53.5977H75.8526C76.1721 53.5977 76.4786 53.7243 76.7046 53.9498C76.9306 54.1753 77.0575 54.4811 77.0575 54.8C77.0575 55.1189 76.9306 55.4247 76.7046 55.6502C76.4786 55.8757 76.1721 56.0024 75.8526 56.0024Z" fill="#E6E6E6"/>
<path d="M70.882 65.3305H32.9467C32.6271 65.3305 32.3206 65.2038 32.0946 64.9784C31.8687 64.7529 31.7417 64.447 31.7417 64.1282C31.7417 63.8093 31.8687 63.5034 32.0946 63.2779C32.3206 63.0525 32.6271 62.9258 32.9467 62.9258H70.882C71.2016 62.9258 71.5081 63.0525 71.7341 63.2779C71.96 63.5034 72.087 63.8093 72.087 64.1282C72.087 64.447 71.96 64.7529 71.7341 64.9784C71.5081 65.2038 71.2016 65.3305 70.882 65.3305Z" fill="#E6E6E6"/>
<path d="M75.8526 69.3872H32.9467C32.6271 69.3872 32.3206 69.2605 32.0946 69.035C31.8687 68.8095 31.7417 68.5037 31.7417 68.1848C31.7417 67.8659 31.8687 67.5601 32.0946 67.3346C32.3206 67.1091 32.6271 66.9824 32.9467 66.9824H75.8526C76.1719 66.9828 76.478 67.1097 76.7037 67.3351C76.9293 67.5606 77.0561 67.8662 77.0561 68.1848C77.0561 68.5034 76.9293 68.809 76.7037 69.0345C76.478 69.2599 76.1719 69.3868 75.8526 69.3872Z" fill="#E6E6E6"/>
<path d="M103.78 28.3532C103.829 27.8963 103.737 27.4353 103.514 27.0328C103.292 26.6302 102.951 26.3057 102.538 26.1033L61.0537 5.87157C60.7899 5.74278 60.5033 5.66711 60.2101 5.64886C59.917 5.63062 59.6232 5.67016 59.3454 5.76523C59.0676 5.8603 58.8113 6.00904 58.5911 6.20295C58.3709 6.39687 58.1911 6.63216 58.062 6.8954L58.0613 6.89695L42.502 38.6625C42.2424 39.1945 42.2047 39.8077 42.3973 40.3674C42.59 40.9271 42.9972 41.3878 43.5297 41.6484L85.0138 61.8802C85.547 62.1393 86.1615 62.1769 86.7224 61.9847C87.2834 61.7924 87.745 61.3861 88.0062 60.8548L103.565 29.0893C103.679 28.8582 103.752 28.6091 103.78 28.3532Z" fill="white"/>
<path d="M103.78 28.3532C103.829 27.8963 103.737 27.4353 103.514 27.0328C103.292 26.6302 102.951 26.3057 102.538 26.1033L61.0537 5.87157C60.7899 5.74278 60.5033 5.66711 60.2101 5.64886C59.917 5.63062 59.6232 5.67016 59.3454 5.76523C59.0676 5.8603 58.8113 6.00904 58.5911 6.20295C58.3709 6.39687 58.1911 6.63216 58.062 6.8954L58.0613 6.89695L42.502 38.6625C42.2424 39.1945 42.2047 39.8077 42.3973 40.3674C42.59 40.9271 42.9972 41.3878 43.5297 41.6484L85.0138 61.8802C85.547 62.1393 86.1615 62.1769 86.7224 61.9847C87.2834 61.7924 87.745 61.3861 88.0062 60.8548L103.565 29.0893C103.679 28.8582 103.752 28.6091 103.78 28.3532ZM87.7698 60.7395C87.5394 61.2084 87.132 61.5669 86.6371 61.7366C86.1421 61.9062 85.5999 61.873 85.1294 61.6442L43.6452 41.4125C43.1753 41.1826 42.816 40.7761 42.646 40.2822C42.476 39.7883 42.5093 39.2473 42.7385 38.7778L58.2978 7.01228C58.5282 6.54338 58.9355 6.1848 59.4305 6.01519C59.9255 5.84558 60.4677 5.87879 60.9381 6.10753L102.422 26.3393C102.892 26.5692 103.252 26.9756 103.422 27.4695C103.592 27.9635 103.558 28.5045 103.329 28.9739L87.7698 60.7395Z" fill="#3F3D56"/>
<path d="M99.2548 29.7979L88.3902 51.9788C88.3178 52.1269 88.1893 52.2401 88.0331 52.2937C87.877 52.3473 87.7059 52.3368 87.5575 52.2645L49.822 33.861C49.795 33.8481 49.7692 33.8329 49.7448 33.8156C49.6211 33.7316 49.5318 33.6058 49.4935 33.4615C49.4551 33.3171 49.4701 33.1638 49.5359 33.0296L60.4004 10.8487C60.4363 10.7754 60.4863 10.7098 60.5476 10.6558C60.6088 10.6017 60.6802 10.5603 60.7575 10.5337C60.8348 10.5072 60.9166 10.4962 60.9983 10.5012C61.0799 10.5062 61.1597 10.5272 61.2332 10.563L98.9687 28.9665C99.1171 29.0388 99.2306 29.167 99.2843 29.3229C99.338 29.4787 99.3274 29.6494 99.255 29.7975L99.2548 29.7979Z" fill="#E6E6E6"/>
<path d="M66.1255 28.6708C69.1437 28.6708 71.5904 26.2294 71.5904 23.2177C71.5904 20.2061 69.1437 17.7646 66.1255 17.7646C63.1074 17.7646 60.6606 20.2061 60.6606 23.2177C60.6606 26.2294 63.1074 28.6708 66.1255 28.6708Z" fill="#4272F6"/>
<path d="M74.1268 45.825L50.0406 34.0783C50.0103 34.064 49.9813 34.0469 49.9541 34.0273L70.9899 19.8937C71.1194 19.805 71.2703 19.7522 71.427 19.7407C71.5838 19.7292 71.7407 19.7594 71.8819 19.8283C72.0231 19.8971 72.1435 20.0021 72.2307 20.1326C72.3179 20.2631 72.3688 20.4143 72.3783 20.5708L73.5515 37.5124L73.6081 38.3233L74.1268 45.825Z" fill="#3F3D56"/>
<path opacity="0.2" d="M74.1274 45.8253L65.9038 41.8146L72.8068 37.9323L73.3038 37.6527L73.5522 37.5127L73.6087 38.3235L74.1274 45.8253Z" fill="black"/>
<path d="M87.5381 52.3665L66.7056 42.2065L73.6085 38.3242L74.1054 38.0444L83.1008 32.9848C83.6905 32.6532 84.5354 33.0267 84.727 33.6611C84.7397 33.7042 84.7495 33.748 84.7566 33.7923L87.5381 52.3665Z" fill="#3F3D56"/>
<path d="M23.2603 54.3017L25.5262 54.3015L26.6043 45.5801L23.2598 45.5803L23.2603 54.3017Z" fill="#FFB8B8"/>
<path d="M22.6821 53.5637L27.1447 53.5635C27.5182 53.5635 27.8882 53.6369 28.2332 53.7795C28.5782 53.9221 28.8918 54.1311 29.1558 54.3946C29.4199 54.6581 29.6294 54.9709 29.7723 55.3152C29.9152 55.6595 29.9888 56.0285 29.9888 56.4012V56.4934L22.6823 56.4937L22.6821 53.5637Z" fill="#2F2E41"/>
<path d="M5.64648 52.8621L7.99423 53.3202L10.8828 44.5025L7.41792 43.8262L5.64648 52.8621Z" fill="#FFB8B8"/>
<path d="M5.19811 51.9805L9.82158 52.8829L9.82177 52.883C10.2087 52.9585 10.5769 53.1093 10.9054 53.3269C11.234 53.5444 11.5163 53.8244 11.7364 54.1508C11.9565 54.4772 12.1099 54.8437 12.1881 55.2293C12.2662 55.6149 12.2674 56.0121 12.1917 56.3982L12.173 56.4937L4.60303 55.0162L5.19811 51.9805Z" fill="#2F2E41"/>
<path d="M97.3079 94.4087H6.09948C4.48236 94.4069 2.93199 93.7651 1.78851 92.6241C0.645035 91.4831 0.0018267 89.9361 0 88.3225V38.3412C0.0018267 36.7275 0.645035 35.1805 1.78851 34.0395C2.93199 32.8985 4.48236 32.2567 6.09948 32.2549H17.2824C18.7997 32.2536 20.2628 32.8179 21.3847 33.8372L33.5119 42.4781C34.3025 43.1991 35.3351 43.5984 36.4061 43.5975H97.8742C98.6827 43.5975 99.4832 43.7579 100.229 44.0694C100.975 44.3808 101.651 44.8371 102.219 45.4117C102.786 45.9863 103.233 46.6678 103.535 47.4165C103.836 48.1651 103.985 48.9661 103.973 49.7728L103.407 88.4114C103.377 90.0079 102.722 91.5294 101.582 92.6502C100.442 93.771 98.9081 94.4022 97.3079 94.4087Z" fill="white"/>
<path d="M96.4977 91.4578H6.63921C5.8591 91.4569 5.11119 91.1473 4.55957 90.5969C4.00795 90.0464 3.69766 89.3001 3.69678 88.5217V37.7232C3.69766 36.9448 4.00795 36.1985 4.55957 35.648C5.11119 35.0976 5.8591 34.788 6.63921 34.7871C7.32921 34.7879 7.99073 35.0617 8.47863 35.5486C8.96654 36.0354 9.24098 36.6955 9.24176 37.384V85.0175C9.24259 85.747 9.53339 86.4464 10.0504 86.9623C10.5673 87.4781 11.2683 87.7683 11.9994 87.7691H96.1943C96.6125 87.7645 97.0203 87.8998 97.3525 88.1534C97.6847 88.407 97.9221 88.7644 98.0269 89.1685C98.1443 89.5516 98.1297 89.963 97.9854 90.3369C97.8411 90.7108 97.5755 91.0257 97.2309 91.2313C97.0123 91.3733 96.7584 91.4517 96.4977 91.4578Z" fill="#F2F2F2"/>
<path d="M49.4121 66.771L48.8697 66.2825C48.7574 66.1877 48.6914 66.0565 48.6863 65.9179C48.6813 65.7793 48.7376 65.6446 48.8428 65.5434C48.8515 65.535 48.8604 65.5269 48.8697 65.5191L53.628 61.229C53.6801 61.1788 53.7426 61.1384 53.812 61.1101C53.8815 61.0817 53.9564 61.066 54.0326 61.0638C54.1088 61.0615 54.1847 61.0728 54.2561 61.097C54.3274 61.1211 54.3928 61.1577 54.4484 61.2047C54.4577 61.2125 54.4667 61.2206 54.4754 61.229L59.2336 65.5153C59.2892 65.5637 59.3337 65.6215 59.3646 65.6854C59.3954 65.7492 59.412 65.818 59.4134 65.8877C59.4148 65.9573 59.4008 66.0265 59.3725 66.0914C59.3442 66.1562 59.3019 66.2153 59.2482 66.2655L59.2336 66.2787L58.6912 66.7672C58.6375 66.8173 58.5734 66.8574 58.5024 66.8852C58.4315 66.913 58.3552 66.928 58.2779 66.9292C58.2006 66.9304 58.1237 66.9179 58.0518 66.8923C57.9798 66.8668 57.9141 66.8288 57.8585 66.7804L57.8438 66.7672L55.0304 64.0954V70.4352C55.031 70.5044 55.0164 70.573 54.9875 70.6371C54.9587 70.7011 54.9161 70.7595 54.8622 70.8088C54.8083 70.858 54.7441 70.8972 54.6734 70.9242C54.6027 70.9511 54.5268 70.9652 54.45 70.9657L54.4457 70.9657H53.6618C53.5056 70.9657 53.3559 70.9098 53.2454 70.8104C53.135 70.7109 53.0729 70.5759 53.0729 70.4352V64.1031L50.2595 66.7749C50.1504 66.8756 50.0014 66.9332 49.8452 66.935C49.6891 66.9367 49.5385 66.8825 49.4267 66.7843L49.4121 66.771Z" fill="#4272F6"/>
<path d="M54.0497 57.3131C55.8525 57.3131 57.6148 57.8477 59.1137 58.8493C60.6127 59.8509 61.781 61.2744 62.4709 62.94C63.1608 64.6055 63.3413 66.4382 62.9896 68.2064C62.6379 69.9745 61.7697 71.5987 60.495 72.8734C59.2202 74.1482 57.5961 75.0163 55.828 75.368C54.0598 75.7197 52.2271 75.5392 50.5616 74.8493C48.896 74.1594 47.4725 72.9911 46.4709 71.4921C45.4693 69.9932 44.9347 68.2309 44.9347 66.4281C44.9369 64.0113 45.8979 61.6941 47.6068 59.9852C49.3157 58.2763 51.6329 57.3153 54.0497 57.3131ZM54.0497 56.1133C52.0096 56.1133 50.0154 56.7182 48.3191 57.8516C46.6228 58.9851 45.3007 60.596 44.52 62.4808C43.7393 64.3656 43.5351 66.4396 43.9331 68.4405C44.3311 70.4413 45.3135 72.2793 46.756 73.7218C48.1986 75.1644 50.0365 76.1468 52.0374 76.5448C54.0383 76.9428 56.1122 76.7385 57.997 75.9578C59.8818 75.1771 61.4928 73.855 62.6262 72.1588C63.7596 70.4625 64.3646 68.4682 64.3646 66.4281C64.3646 63.6925 63.2778 61.0688 61.3434 59.1344C59.409 57.2 56.7854 56.1133 54.0497 56.1133Z" fill="#3F3D56"/>
<path d="M97.3079 94.4087H6.09948C4.48236 94.4069 2.93199 93.7651 1.78851 92.6241C0.645035 91.4831 0.0018267 89.9361 0 88.3225V38.3412C0.0018267 36.7275 0.645035 35.1805 1.78851 34.0395C2.93199 32.8985 4.48236 32.2567 6.09948 32.2549H17.2824C18.7997 32.2536 20.2628 32.8179 21.3847 33.8372L33.5119 42.4781C34.3025 43.1991 35.3351 43.5984 36.4061 43.5975H97.8742C98.6827 43.5975 99.4832 43.7579 100.229 44.0694C100.975 44.3808 101.651 44.8371 102.219 45.4117C102.786 45.9863 103.233 46.6678 103.535 47.4165C103.836 48.1651 103.985 48.9661 103.973 49.7728L103.407 88.4114C103.377 90.0079 102.722 91.5294 101.582 92.6502C100.442 93.771 98.9081 94.4022 97.3079 94.4087ZM6.09948 32.6238C4.58037 32.6255 3.12397 33.2284 2.0498 34.3002C0.975623 35.3721 0.371392 36.8253 0.369666 38.3412V88.3225C0.371392 89.8383 0.975623 91.2915 2.0498 92.3634C3.12397 93.4352 4.58037 94.0382 6.09948 94.0399H97.3079C98.8112 94.0337 100.252 93.4408 101.323 92.3879C102.394 91.335 103.009 89.9058 103.037 88.406L103.603 49.7674C103.615 49.0096 103.475 48.2572 103.192 47.5539C102.909 46.8506 102.488 46.2104 101.955 45.6706C101.422 45.1308 100.787 44.7022 100.086 44.4096C99.3857 44.117 98.6337 43.9664 97.8742 43.9664H36.4061C35.2467 43.9674 34.1287 43.5365 33.271 42.7581L21.1439 34.1172C20.089 33.1553 18.7113 32.6225 17.2824 32.6238H6.09948Z" fill="#3F3D56"/>
</svg>
