<svg xmlns="http://www.w3.org/2000/svg" width="24.979" height="18.734" viewBox="0 0 24.979 18.734">
  <path id="Icon_awesome-plane-departure" data-name="Icon awesome-plane-departure" d="M24.354,18.486H.624A.624.624,0,0,0,0,19.11v1.249a.624.624,0,0,0,.624.624h23.73a.624.624,0,0,0,.624-.624V19.11A.624.624,0,0,0,24.354,18.486ZM3.144,14.32a1.287,1.287,0,0,0,.95.418l5.095-.007a2.561,2.561,0,0,0,1.157-.278L21.7,8.691a6.635,6.635,0,0,0,2.616-2.276c.715-1.112.792-1.916.51-2.484s-.966-.986-2.273-1.071a6.556,6.556,0,0,0-3.367.76L15.341,5.571l-8.536-3.2a.7.7,0,0,0-.7-.043l-2.566,1.3a.713.713,0,0,0-.2,1.113l6.1,3.829L5.4,10.614,2.58,9.19a.7.7,0,0,0-.627,0l-1.566.8a.713.713,0,0,0-.217,1.1Z" transform="translate(0 -2.249)" fill="#171b4a"/>
</svg>
