<svg xmlns="http://www.w3.org/2000/svg" width="100" height="74.512" viewBox="0 0 100 74.512">
  <g id="_503_Error_Service_Unavailable-rafiki" data-name="503 Error Service Unavailable-rafiki" transform="translate(0 -55)">
    <g id="freepik--background-complete--inject-1" transform="translate(0 55)">
      <rect id="Rectangle_690" data-name="Rectangle 690" width="100" height="0.05" transform="translate(0 65.48)" fill="#ebebeb"/>
      <path id="Path_7449" data-name="Path 7449" d="M77.968,111.56H39.35a1.142,1.142,0,0,1-1.14-1.142V56.132A1.142,1.142,0,0,1,39.35,55H77.968a1.142,1.142,0,0,1,1.142,1.142v54.276A1.142,1.142,0,0,1,77.968,111.56ZM39.35,55.04a1.092,1.092,0,0,0-1.09,1.092v54.286a1.092,1.092,0,0,0,1.09,1.092H77.968a1.094,1.094,0,0,0,1.092-1.092V56.132a1.094,1.094,0,0,0-1.092-1.092Z" transform="translate(-30.568 -55)" fill="#ebebeb"/>
      <path id="Path_7450" data-name="Path 7450" d="M294.262,111.56h-38.62a1.144,1.144,0,0,1-1.142-1.142V56.132A1.144,1.144,0,0,1,255.642,55h38.62a1.142,1.142,0,0,1,1.138,1.132v54.286A1.142,1.142,0,0,1,294.262,111.56Zm-38.62-56.52a1.094,1.094,0,0,0-1.092,1.092v54.286a1.094,1.094,0,0,0,1.092,1.092h38.62a1.094,1.094,0,0,0,1.092-1.092V56.132a1.094,1.094,0,0,0-1.092-1.092Z" transform="translate(-203.6 -55)" fill="#ebebeb"/>
      <rect id="Rectangle_691" data-name="Rectangle 691" width="5.2" height="0.05" transform="translate(10.256 67.384)" fill="#ebebeb"/>
      <rect id="Rectangle_692" data-name="Rectangle 692" width="9.006" height="0.05" transform="translate(29.03 66.842)" fill="#ebebeb"/>
      <rect id="Rectangle_693" data-name="Rectangle 693" width="12.158" height="0.05" transform="translate(15.656 69.242)" fill="#ebebeb"/>
      <rect id="Rectangle_694" data-name="Rectangle 694" width="3.846" height="0.05" transform="translate(85.898 68.906)" fill="#ebebeb"/>
      <rect id="Rectangle_695" data-name="Rectangle 695" width="11.058" height="0.05" transform="translate(73.058 68.906)" fill="#ebebeb"/>
      <rect id="Rectangle_696" data-name="Rectangle 696" width="14.894" height="0.05" transform="translate(51.41 68.062)" fill="#ebebeb"/>
      <path id="Path_7451" data-name="Path 7451" d="M180.71,215.44l-2.53,33.4h24.4l2.53-33.4Zm15.342,23.6a5.412,5.412,0,0,1-5.308,4.934,4.508,4.508,0,0,1-4.558-4.932l.89-11.74a5.412,5.412,0,0,1,5.306-4.934,4.51,4.51,0,0,1,4.562,4.934Z" transform="translate(-142.544 -183.352)" fill="#e6e6e6"/>
      <path id="Path_7452" data-name="Path 7452" d="M196.576,373.632H161l.206-2.192H196.78Z" transform="translate(-128.8 -308.152)" fill="#e6e6e6"/>
      <path id="Path_7453" data-name="Path 7453" d="M405.794,316.9h3.156a.31.31,0,0,0,.31-.328l-.012-.224a.346.346,0,0,0-.342-.326H405.75a.31.31,0,0,0-.312.326l.012.224A.348.348,0,0,0,405.794,316.9Z" transform="translate(-324.35 -263.816)" fill="#e0e0e0"/>
      <path id="Path_7454" data-name="Path 7454" d="M379.464,316.9h3.15a.308.308,0,0,0,.31-.328l-.012-.224a.346.346,0,0,0-.342-.326h-3.15a.31.31,0,0,0-.312.326l.012.224A.35.35,0,0,0,379.464,316.9Z" transform="translate(-303.286 -263.816)" fill="#e0e0e0"/>
      <path id="Path_7455" data-name="Path 7455" d="M125.811,130.234H52.285a1.632,1.632,0,0,1-1.612-1.536L48.459,84.534A1.444,1.444,0,0,1,49.917,83h73.526a1.63,1.63,0,0,1,1.612,1.534l2.214,44.164a1.446,1.446,0,0,1-1.458,1.536Z" transform="translate(-38.765 -77.4)" fill="#e0e0e0"/>
      <path id="Path_7456" data-name="Path 7456" d="M130.335,130.234H56.811a1.636,1.636,0,0,1-1.622-1.536l-2.2-44.164A1.444,1.444,0,0,1,54.443,83h73.524a1.634,1.634,0,0,1,1.622,1.534l2.2,44.164a1.446,1.446,0,0,1-1.454,1.536Z" transform="translate(-42.389 -77.4)" fill="#e6e6e6"/>
      <path id="Path_7457" data-name="Path 7457" d="M66.046,135.632l-2.052-41.07a.908.908,0,0,1,.914-.962h70.424a1.02,1.02,0,0,1,1.01.962l2.052,41.07a.906.906,0,0,1-.912.962H67.056A1.022,1.022,0,0,1,66.046,135.632Z" transform="translate(-51.194 -85.88)" fill="#f5f5f5"/>
      <path id="Path_7458" data-name="Path 7458" d="M78.878,100.7a.8.8,0,0,1-.8.852.906.906,0,0,1-.894-.852.8.8,0,0,1,.8-.85.9.9,0,0,1,.894.85Z" transform="translate(-61.746 -90.88)" fill="#fff"/>
      <path id="Path_7459" data-name="Path 7459" d="M98.148,100.7a.8.8,0,0,1-.8.852.906.906,0,0,1-.894-.852.8.8,0,0,1,.8-.85A.9.9,0,0,1,98.148,100.7Z" transform="translate(-77.162 -90.88)" fill="#fff"/>
      <path id="Path_7460" data-name="Path 7460" d="M117.436,100.7a.8.8,0,0,1-.8.852.9.9,0,0,1-.892-.852.8.8,0,0,1,.8-.85A.9.9,0,0,1,117.436,100.7Z" transform="translate(-92.594 -90.88)" fill="#fff"/>
      <g id="Group_5499" data-name="Group 5499" transform="translate(22.176 7.72)" opacity="0.6">
        <path id="Path_7461" data-name="Path 7461" d="M110.88,136.594h10.15L130.31,93.6H120.16Z" transform="translate(-110.88 -93.6)" fill="#fff"/>
        <path id="Path_7462" data-name="Path 7462" d="M329.28,136.594h2.57L341.13,93.6h-2.57Z" transform="translate(-285.6 -93.6)" fill="#fff"/>
        <path id="Path_7463" data-name="Path 7463" d="M172.91,136.594h14.4L196.59,93.6h-14.4Z" transform="translate(-160.504 -93.6)" fill="#fff"/>
      </g>
    </g>
    <g id="freepik--Shadow--inject-1" transform="translate(11.222 124.984)">
      <ellipse id="freepik--path--inject-1" cx="38.778" cy="2.264" rx="38.778" ry="2.264" fill="#f5f5f5"/>
    </g>
    <g id="freepik--Character--inject-1" transform="translate(19.824 65.919)">
      <path id="Path_7464" data-name="Path 7464" d="M323.03,219.777h-.072c-5.328-.436-9-5-9.148-5.184a.894.894,0,0,1,1.4-1.11c.042.054,3.18,3.922,7.526,4.474a11.426,11.426,0,0,0,2.466-6.214v-.032a5.377,5.377,0,0,1,.258-2.33.894.894,0,0,1,1.6.776,4.159,4.159,0,0,0-.088,1.4c.2,1.84-1.4,6.484-3.4,8.038A.894.894,0,0,1,323.03,219.777Z" transform="translate(-270.734 -189.086)" fill="#263238"/>
      <path id="Path_7465" data-name="Path 7465" d="M109.059,168.4a13.16,13.16,0,0,1-9.712-4.456.892.892,0,0,1-.052-1.128,39.787,39.787,0,0,0,4.4-8.022,2.182,2.182,0,0,0-.828-.866.89.89,0,0,1-.51-.722l-.144-1.464a.894.894,0,0,1,1.778-.176l.1,1.018a4.468,4.468,0,0,1,1.362,1.73.9.9,0,0,1,.064.452c-.184,1.586-2.758,6.18-4.342,8.5a11.177,11.177,0,0,0,8.312,3.332.894.894,0,0,1,.164,1.78C109.6,168.38,109.393,168.4,109.059,168.4Z" transform="translate(-99.119 -142.551)" fill="#263238"/>
      <path id="Path_7466" data-name="Path 7466" d="M277.8,348.839h-2.4a.894.894,0,0,1-.862-1.132,33.521,33.521,0,0,0,1.164-6.942c-.848-4-1.646-7.642-1.654-7.678a.894.894,0,0,1,1.746-.382c0,.036.824,3.772,1.682,7.816a.846.846,0,0,1,.016.256,36.737,36.737,0,0,1-.934,6.276h1.236a.894.894,0,0,1,0,1.786Z" transform="translate(-239.049 -287.54)" fill="#263238"/>
      <path id="Path_7467" data-name="Path 7467" d="M191.34,348.634h-1.352a.89.89,0,0,1-.884-1.016,40.664,40.664,0,0,1,2.66-7.628c.446-3.96.81-7.36.814-7.4a.894.894,0,1,1,1.776.2c0,.034-.376,3.512-.83,7.53a.862.862,0,0,1-.064.244,64.434,64.434,0,0,0-2.36,6.288h.24a.894.894,0,1,1,0,1.786Z" transform="translate(-171.1 -287.335)" fill="#263238"/>
      <path id="Path_7468" data-name="Path 7468" d="M161.052,111,150.64,121.414c-.524,11.542-.482,23.666,0,36.236h34.432c-.682-16.22-.746-31.834,0-46.65Z" transform="translate(-140.034 -110.719)" fill="#fff"/>
      <path id="Path_7469" data-name="Path 7469" d="M184.368,157.09H149.936a.18.18,0,0,1-.18-.172c-.5-13.054-.5-25.254,0-36.254a.18.18,0,0,1,.054-.118l10.412-10.414a.178.178,0,0,1,.126-.052h24.02a.18.18,0,0,1,.13.056.174.174,0,0,1,.048.132c-.718,14.268-.718,29.522,0,46.634a.178.178,0,0,1-.05.13A.172.172,0,0,1,184.368,157.09Zm-34.262-.358h34.076c-.708-16.972-.71-32.118,0-46.294h-23.76L150.106,120.75C149.616,131.678,149.616,143.782,150.106,156.732Z" transform="translate(-139.33 -109.983)" fill="#263238"/>
      <path id="Path_7490" data-name="Path 7490" d="M205.992,213.028c-.04-.872-.534-1.56-1.106-1.54s-1,.742-.964,1.614.534,1.56,1.106,1.538S206.032,213.9,205.992,213.028Z" transform="translate(-182.959 -191.11)" fill="#407bff"/>
      <path id="Path_7491" data-name="Path 7491" d="M266.362,211.666c-.04-.87-.534-1.558-1.106-1.538s-1,.742-.964,1.614.536,1.56,1.106,1.538S266.4,212.538,266.362,211.666Z" transform="translate(-231.255 -190.022)" fill="#407bff"/>
      <path id="Path_7492" data-name="Path 7492" d="M224.611,235.151a7.31,7.31,0,0,1,5.726.26.254.254,0,0,1,.1.348.26.26,0,0,1-.35.1,7.037,7.037,0,0,0-6.282.2.262.262,0,0,1-.348-.108.254.254,0,0,1,.11-.344A8.346,8.346,0,0,1,224.611,235.151Z" transform="translate(-198.564 -209.671)" fill="#407bff"/>
      <path id="Path_7493" data-name="Path 7493" d="M189.59,178.339a.528.528,0,0,1,.252.072.516.516,0,0,1,.184.7,5.058,5.058,0,0,1-3.91,2.558.518.518,0,0,1-.538-.49.51.51,0,0,1,.488-.532h0a4.024,4.024,0,0,0,3.072-2.054.5.5,0,0,1,.452-.256Z" transform="translate(-168.286 -164.591)" fill="#407bff"/>
      <path id="Path_7494" data-name="Path 7494" d="M264.359,176.831a.514.514,0,0,1,.466.144,4.14,4.14,0,0,0,3.5,1.264.52.52,0,0,1,.6.4.508.508,0,0,1-.4.6,5.168,5.168,0,0,1-4.442-1.55.508.508,0,0,1,.262-.86Z" transform="translate(-230.973 -163.377)" fill="#407bff"/>
      <path id="Path_7495" data-name="Path 7495" d="M303.2,156.8l-1.462.136a1.044,1.044,0,0,1-1.116-.812l-2.026-9.076a1.044,1.044,0,0,1,.754-1.236l3.918-1.028Z" transform="translate(-258.684 -137.743)" opacity="0.2"/>
      <path id="Path_7496" data-name="Path 7496" d="M163.5,122.322c-1.018-2.778-2.036-7.224-.962-11.342L152.13,121.394A28.544,28.544,0,0,0,163.5,122.322Z" transform="translate(-141.528 -110.703)" opacity="0.2"/>
      <path id="Path_7497" data-name="Path 7497" d="M162.562,121.394c-1.142-3.372-.676-7.956,0-10.414L152.15,121.394A34.358,34.358,0,0,0,162.562,121.394Z" transform="translate(-141.544 -110.703)" fill="#fff"/>
      <path id="Path_7498" data-name="Path 7498" d="M156.21,121.251a26.628,26.628,0,0,1-4.8-.4.176.176,0,0,1-.094-.3l10.412-10.414a.178.178,0,0,1,.3.174c-.628,2.288-1.15,6.92,0,10.308a.186.186,0,0,1-.018.152.174.174,0,0,1-.128.082A44.37,44.37,0,0,1,156.21,121.251Zm-4.4-.692a34.21,34.21,0,0,0,9.8-.032,20.164,20.164,0,0,1-.1-9.68Z" transform="translate(-140.834 -109.986)" fill="#263238"/>
      <path id="Path_7499" data-name="Path 7499" d="M367.236,180.818a.3.3,0,0,1-.288-.222L363.28,166.62a.3.3,0,0,1,.578-.152l3.668,13.976a.3.3,0,0,1-.214.364A.24.24,0,0,1,367.236,180.818Z" transform="translate(-310.44 -154.916)" fill="#263238"/>
      <rect id="Rectangle_697" data-name="Rectangle 697" width="0.2" height="1.104" transform="translate(63.434 5.876) rotate(-14.452)" fill="#407bff"/>
      <path id="Path_7500" data-name="Path 7500" d="M395.206,113.9l-.77-2.934a1.552,1.552,0,0,0-1.892-1.106l-2.014.528-.05-.2,2.014-.53a1.752,1.752,0,0,1,2.134,1.248l.772,2.936Z" transform="translate(-332.208 -109.597)" fill="#407bff"/>
      <rect id="Rectangle_698" data-name="Rectangle 698" width="21.81" height="11.606" rx="5.24" transform="matrix(0.967, -0.254, 0.254, 0.967, 40.382, 6.016)" fill="#407bff"/>
      <rect id="Rectangle_699" data-name="Rectangle 699" width="14.534" height="5.068" rx="2.534" transform="matrix(0.967, -0.254, 0.254, 0.967, 46.471, 14.885)" fill="#407bff"/>
      <path id="Path_7501" data-name="Path 7501" d="M342.15,186.228l1.646-.428.11.424-1.03.268.082.316.962-.248.106.4-.956.25.1.39,1.06-.274.116.45-1.674.436Z" transform="translate(-293.544 -170.559)" fill="#fff"/>
      <path id="Path_7502" data-name="Path 7502" d="M352.738,185.988,352.22,184l1.024-.266a1.532,1.532,0,0,1,.448-.064.478.478,0,0,1,.29.118.63.63,0,0,1,.18.6.55.55,0,0,1-.144.246.738.738,0,0,1-.2.134.418.418,0,0,1,.3.112,1,1,0,0,1,.12.1l.446.5-.694.182-.482-.524a.464.464,0,0,0-.15-.124.27.27,0,0,0-.164,0l-.054.014.21.8Zm.308-1.344.26-.066a.96.96,0,0,0,.156-.07.16.16,0,0,0,.082-.088.2.2,0,0,0-.09-.258.4.4,0,0,0-.242,0l-.27.07Z" transform="translate(-301.6 -168.855)" fill="#fff"/>
      <path id="Path_7503" data-name="Path 7503" d="M363.52,183.178,363,181.19l1.024-.266a1.6,1.6,0,0,1,.448-.064.474.474,0,0,1,.288.118.552.552,0,0,1,.176.3.562.562,0,0,1,0,.3.57.57,0,0,1-.142.244.828.828,0,0,1-.2.136.578.578,0,0,1,.178.03.693.693,0,0,1,.126.08.936.936,0,0,1,.118.1l.448.5-.694.18-.486-.522a.448.448,0,0,0-.152-.124.264.264,0,0,0-.162,0l-.054.014.21.8Zm.31-1.342.26-.068a1.055,1.055,0,0,0,.154-.07.158.158,0,0,0,.084-.088.2.2,0,0,0-.09-.256.378.378,0,0,0-.244,0l-.268.07Z" transform="translate(-310.224 -166.607)" fill="#fff"/>
      <path id="Path_7504" data-name="Path 7504" d="M374.21,179.452a.972.972,0,0,1,.758-1.3,1.08,1.08,0,0,1,.834.068,1.046,1.046,0,0,1,.462.676,1.29,1.29,0,0,1,.032.6.858.858,0,0,1-.25.436,1.164,1.164,0,0,1-.52.268,1.3,1.3,0,0,1-.584.036A.86.86,0,0,1,374.5,180,1.184,1.184,0,0,1,374.21,179.452Zm.614-.156a.68.68,0,0,0,.224.4.436.436,0,0,0,.612-.156.758.758,0,0,0-.012-.49.63.63,0,0,0-.22-.38.4.4,0,0,0-.34-.05.384.384,0,0,0-.264.21A.694.694,0,0,0,374.824,179.3Z" transform="translate(-319.144 -164.401)" fill="#fff"/>
      <path id="Path_7505" data-name="Path 7505" d="M385.658,177.425l-.518-1.986,1.024-.266a1.458,1.458,0,0,1,.448-.064.472.472,0,0,1,.29.118.622.622,0,0,1,.178.6.576.576,0,0,1-.142.246.738.738,0,0,1-.2.134.648.648,0,0,1,.18.032.617.617,0,0,1,.124.078.8.8,0,0,1,.118.1l.448.5-.694.182-.486-.522a.486.486,0,0,0-.152-.126.278.278,0,0,0-.162,0l-.054.014.21.8Zm.308-1.342.26-.066a1.191,1.191,0,0,0,.156-.07.168.168,0,0,0,.082-.088.2.2,0,0,0-.09-.258.386.386,0,0,0-.242,0l-.27.07Z" transform="translate(-327.936 -162.007)" fill="#fff"/>
      <path id="Path_7506" data-name="Path 7506" d="M318.74,143.888l4.14-1.088.364,1.4-2.8.736.1.982a3.034,3.034,0,0,1,.522-.358,2.612,2.612,0,0,1,.544-.216,2.18,2.18,0,0,1,1.678.168,1.988,1.988,0,0,1,.964,1.282,2.534,2.534,0,0,1,0,1.248,2.124,2.124,0,0,1-.632,1.08,3.106,3.106,0,0,1-1.342.668,4.4,4.4,0,0,1-1.094.162,2.246,2.246,0,0,1-.846-.154,2.2,2.2,0,0,1-.642-.4,2.883,2.883,0,0,1-.514-.652l1.714-.656a1.108,1.108,0,0,0,.468.566.822.822,0,0,0,.618.072.784.784,0,0,0,.53-.434,1.274,1.274,0,0,0,.022-.886,1.234,1.234,0,0,0-.456-.76.852.852,0,0,0-.706-.092,1.074,1.074,0,0,0-.456.252,1.424,1.424,0,0,0-.3.426l-1.542.176Z" transform="translate(-274.816 -136.159)" fill="#fff"/>
      <path id="Path_7507" data-name="Path 7507" d="M347.572,140.937a3.875,3.875,0,0,1-.014-2.674,2.593,2.593,0,0,1,1.776-1.23,3.034,3.034,0,0,1,1.082-.116,2.014,2.014,0,0,1,.77.232,2.2,2.2,0,0,1,.542.422,2.842,2.842,0,0,1,.4.582,6.124,6.124,0,0,1,.558,1.418,4.425,4.425,0,0,1,.08,2.652,2.374,2.374,0,0,1-1.784,1.314,2.874,2.874,0,0,1-1.346.082,2.142,2.142,0,0,1-1-.53,2.888,2.888,0,0,1-.6-.856,6.8,6.8,0,0,1-.464-1.3Zm1.73-.45a4.37,4.37,0,0,0,.642,1.582.688.688,0,0,0,.722.278.66.66,0,0,0,.4-.306,1.2,1.2,0,0,0,.134-.664,6.4,6.4,0,0,0-.238-1.28,4.506,4.506,0,0,0-.652-1.624.7.7,0,0,0-.75-.264.674.674,0,0,0-.51.6A5.445,5.445,0,0,0,349.3,140.487Z" transform="translate(-297.69 -131.447)" fill="#fff"/>
      <path id="Path_7508" data-name="Path 7508" d="M377.612,131.5l-1.726.138a2.142,2.142,0,0,1,.474-1.414,2.886,2.886,0,0,1,1.544-.854,2.8,2.8,0,0,1,1.9,0,1.49,1.49,0,0,1,.85,1,1.342,1.342,0,0,1-.03.8,1.952,1.952,0,0,1-.52.754,2.05,2.05,0,0,1,.612.064,1.4,1.4,0,0,1,.618.38,1.588,1.588,0,0,1,.37.706,2.174,2.174,0,0,1-.01,1.126,2,2,0,0,1-.624,1,3.266,3.266,0,0,1-1.344.644,3.788,3.788,0,0,1-1.4.152,2.066,2.066,0,0,1-.968-.374,2.778,2.778,0,0,1-.746-.846l1.682-.688a1.4,1.4,0,0,0,.51.646.8.8,0,0,0,.6.06.784.784,0,0,0,.516-.412,1,1,0,0,0,.054-.746.978.978,0,0,0-.4-.616.816.816,0,0,0-.674-.08,2.35,2.35,0,0,0-.538.25l-.236-1.268a1.922,1.922,0,0,0,.232-.038.824.824,0,0,0,.514-.37.71.71,0,0,0,.094-.578.64.64,0,0,0-.292-.412.66.66,0,0,0-.516-.048.714.714,0,0,0-.452.318A1.162,1.162,0,0,0,377.612,131.5Z" transform="translate(-320.531 -125.287)" fill="#fff"/>
    </g>
  </g>
</svg>
