<svg width="602" height="444" viewBox="0 0 602 444" fill="none" xmlns="http://www.w3.org/2000/svg">
<g clip-path="url(#clip0_385_2010)">
<path d="M133.549 122.267L21.3481 197.322L131.865 362.536L244.066 287.48L133.549 122.267Z" fill="#F5F5F5"/>
<path d="M186.09 279.66L184.81 287.54L129.03 279.5L130.31 271.62L186.09 279.66Z" fill="#E0E0E0"/>
<path d="M158 251.55L166 252.7L157.13 307.62L149.12 306.46L158 251.55Z" fill="#E0E0E0"/>
<path d="M106.62 181.75C106.7 181.87 95.4598 189.53 81.5098 198.86C67.5598 208.19 56.1898 215.66 56.1098 215.54C56.0298 215.42 67.2698 207.76 81.2198 198.43C95.1698 189.1 106.54 181.63 106.62 181.75Z" fill="#E0E0E0"/>
<path d="M147.88 171.39C147.96 171.51 129.26 184.16 106.12 199.63C82.9696 215.11 64.1496 227.56 64.0696 227.44C63.9896 227.32 82.6796 214.68 105.83 199.19C128.97 183.71 147.8 171.26 147.88 171.38V171.39Z" fill="#E0E0E0"/>
<path d="M156.15 183.75C156.23 183.87 137.53 196.52 114.39 211.99C91.2396 227.47 72.4196 239.92 72.3396 239.8C72.2596 239.68 90.9496 227.04 114.1 211.55C137.24 196.07 156.07 183.62 156.15 183.74V183.75Z" fill="#E0E0E0"/>
<path d="M164.42 196.12C164.5 196.24 145.8 208.89 122.66 224.36C99.5096 239.84 80.6896 252.29 80.6096 252.17C80.5296 252.05 99.2196 239.41 122.37 223.92C145.51 208.44 164.34 195.99 164.42 196.11V196.12Z" fill="#E0E0E0"/>
<path d="M172.7 208.49C172.78 208.61 154.08 221.26 130.94 236.73C107.79 252.21 88.9699 264.66 88.8899 264.54C88.8099 264.42 107.5 251.78 130.65 236.29C153.79 220.81 172.62 208.36 172.7 208.48V208.49Z" fill="#E0E0E0"/>
<path d="M508.735 232.971L414.504 296.005L507.318 434.754L601.549 371.719L508.735 232.971Z" fill="#F5F5F5"/>
<path d="M552.87 365.18L551.8 371.8L504.95 365.05L506.02 358.43L552.87 365.18Z" fill="#E0E0E0"/>
<path d="M529.27 341.57L536 342.54L528.54 388.66L521.82 387.69L529.27 341.57Z" fill="#E0E0E0"/>
<path d="M486.13 282.95C486.21 283.07 476.78 289.52 465.06 297.35C453.34 305.19 443.78 311.44 443.7 311.32C443.62 311.2 453.05 304.75 464.77 296.91C476.48 289.08 486.05 282.82 486.13 282.94V282.95Z" fill="#E0E0E0"/>
<path d="M520.78 274.25C520.86 274.37 505.17 285.01 485.73 298.01C466.29 311.01 450.47 321.45 450.39 321.33C450.31 321.21 466 310.58 485.44 297.57C504.87 284.57 520.7 274.13 520.78 274.25Z" fill="#E0E0E0"/>
<path d="M527.73 284.63C527.81 284.75 512.12 295.39 492.68 308.39C473.24 321.39 457.42 331.83 457.34 331.71C457.26 331.59 472.95 320.96 492.39 307.95C511.82 294.95 527.65 284.51 527.73 284.63Z" fill="#E0E0E0"/>
<path d="M534.67 295.02C534.75 295.14 519.06 305.78 499.62 318.77C480.18 331.77 464.36 342.21 464.28 342.09C464.2 341.97 479.89 331.34 499.33 318.33C518.76 305.33 534.59 294.89 534.67 295.01V295.02Z" fill="#E0E0E0"/>
<path d="M541.62 305.41C541.7 305.53 526.01 316.17 506.57 329.17C487.13 342.17 471.31 352.61 471.23 352.49C471.15 352.37 486.84 341.74 506.28 328.73C525.71 315.73 541.54 305.29 541.62 305.41Z" fill="#E0E0E0"/>
<path d="M359.656 128.334L256.838 73.3418L175.864 224.738L278.682 279.729L359.656 128.334Z" fill="#F5F5F5"/>
<path d="M261.09 232.37L254.57 234.6L238.01 188.83L244.53 186.59L261.09 232.37Z" fill="#E0E0E0"/>
<path d="M271.09 199.53L273.47 206.1L228.01 221.67L225.63 215.1L271.09 199.53Z" fill="#E0E0E0"/>
<path d="M303.39 131.99C303.31 132.14 292.88 126.72 280.1 119.88C267.31 113.04 257.02 107.38 257.1 107.23C257.18 107.08 267.61 112.5 280.39 119.34C293.17 126.18 303.47 131.84 303.39 131.99Z" fill="#E0E0E0"/>
<path d="M328.06 159.23C327.98 159.38 310.72 150.31 289.52 138.97C268.31 127.63 251.18 118.31 251.26 118.16C251.34 118.01 268.6 127.08 289.81 138.43C311.01 149.77 328.14 159.09 328.06 159.24V159.23Z" fill="#E0E0E0"/>
<path d="M322 170.56C321.92 170.71 304.66 161.64 283.46 150.3C262.25 138.96 245.12 129.64 245.2 129.49C245.28 129.34 262.54 138.41 283.75 149.76C304.95 161.1 322.08 170.42 322 170.57V170.56Z" fill="#E0E0E0"/>
<path d="M315.94 181.89C315.86 182.04 298.6 172.97 277.4 161.63C256.19 150.29 239.06 140.97 239.14 140.82C239.22 140.67 256.48 149.74 277.69 161.09C298.89 172.43 316.02 181.75 315.94 181.9V181.89Z" fill="#E0E0E0"/>
<path d="M309.88 193.22C309.8 193.37 292.54 184.3 271.34 172.96C250.13 161.62 233 152.3 233.08 152.15C233.16 152 250.42 161.07 271.63 172.42C292.83 183.76 309.96 193.08 309.88 193.23V193.22Z" fill="#E0E0E0"/>
<path opacity="0.2" d="M310.42 0H307.84V43.98H310.42V0Z" fill="black"/>
<path d="M248.9 97.19H369.36C369.36 97.19 358.24 43.96 308.22 43.96C263.73 43.96 248.9 97.19 248.9 97.19Z" fill="#4272F6"/>
<path d="M310.42 0H307.84V43.98H310.42V0Z" fill="#4272F6"/>
<path d="M577.33 439.83C577.33 439.97 448.08 440.09 288.68 440.09C129.28 440.09 0 439.97 0 439.83C0 439.69 129.22 439.57 288.68 439.57C448.14 439.57 577.33 439.69 577.33 439.83Z" fill="#263238"/>
<path d="M31.9499 377.2C35.3299 377.32 38.4999 379.15 40.7299 381.7C42.9599 384.24 44.3299 387.44 45.1999 390.71C46.8899 397.03 45.8499 404.5 44.0499 410.79C37.1999 408.34 32.9799 401.04 31.0699 397.2C28.0499 391.13 26.2799 378.34 31.9399 377.2" fill="#4272F6"/>
<path d="M53.9098 418.45C51.7498 415.35 51.6998 411.04 53.4098 407.66C55.1198 404.29 58.3998 401.86 62.0098 400.75C63.6798 400.24 65.6198 400.02 67.0698 400.99C68.4298 401.9 69.0198 403.68 68.8398 405.3C68.6598 406.92 67.8398 408.41 66.8698 409.72C63.5398 414.23 59.4898 417.98 53.9098 418.44" fill="#4272F6"/>
<path d="M54.66 439.581C54.66 439.581 54.52 439.121 54.35 438.271C54.17 437.331 53.93 436.121 53.65 434.671C53.11 431.641 52.25 427.331 52.9 422.571C53.52 417.831 55.41 413.771 57.39 411.351C58.36 410.131 59.3 409.261 59.99 408.731C60.32 408.451 60.62 408.281 60.8 408.141C60.99 408.011 61.1 407.951 61.11 407.971C61.18 408.051 59.51 409.091 57.66 411.561C55.79 413.991 53.99 417.971 53.37 422.641C52.73 427.311 53.52 431.581 53.98 434.621C54.22 436.151 54.42 437.391 54.54 438.251C54.65 439.111 54.7 439.591 54.66 439.591V439.581Z" fill="#263238"/>
<path d="M34.1597 386.831C34.1597 386.831 34.2697 387.001 34.4397 387.351C34.6197 387.741 34.8597 388.251 35.1497 388.871C35.7497 390.201 36.6097 392.131 37.6397 394.521C39.6997 399.311 42.4597 405.971 45.3397 413.381C48.2197 420.801 50.6697 427.581 52.3697 432.501C53.2197 434.961 53.8997 436.961 54.3497 438.351C54.5597 439.011 54.7297 439.541 54.8597 439.951C54.9697 440.321 55.0197 440.511 55.0097 440.521C54.9997 440.531 54.9097 440.341 54.7697 439.981C54.6197 439.571 54.4197 439.051 54.1797 438.411C53.6597 436.991 52.9397 435.021 52.0597 432.611C50.2697 427.711 47.7697 420.961 44.8997 413.541C42.0197 406.131 39.3197 399.461 37.3397 394.641C36.3697 392.271 35.5697 390.331 34.9897 388.931C34.7297 388.291 34.5297 387.771 34.3697 387.371C34.2297 387.011 34.1697 386.821 34.1797 386.811L34.1597 386.831Z" fill="#263238"/>
<path d="M46.5398 425.6C42.4998 418.73 34.9698 414.05 27.0198 413.47C24.9998 413.32 22.5598 413.66 21.6598 415.48C20.7598 417.3 21.9598 419.45 23.3398 420.95C29.0798 427.16 38.7798 429.33 46.6098 426.15" fill="#4272F6"/>
<path d="M30.0999 418.89C30.0999 418.89 30.5499 418.88 31.3699 418.94C31.7799 418.97 32.2799 419 32.8499 419.11C33.4199 419.22 34.0799 419.28 34.7899 419.47C35.4999 419.64 36.2899 419.82 37.0999 420.11C37.9299 420.35 38.7799 420.71 39.6699 421.09C41.4299 421.89 43.3099 422.94 45.0899 424.3C46.8599 425.68 48.3499 427.22 49.5699 428.73C50.1499 429.5 50.7099 430.24 51.1499 430.99C51.6299 431.71 51.9899 432.43 52.3199 433.08C52.6799 433.72 52.8899 434.35 53.1299 434.88C53.3699 435.41 53.5099 435.89 53.6299 436.28C53.8699 437.06 53.9899 437.49 53.9599 437.5C53.8599 437.54 53.3699 435.79 52.0199 433.23C51.6699 432.6 51.2999 431.9 50.8099 431.2C50.3699 430.47 49.8099 429.76 49.2199 429.01C48.0099 427.54 46.5299 426.04 44.7899 424.68C43.0399 423.34 41.2099 422.3 39.4799 421.49C38.6099 421.11 37.7699 420.74 36.9599 420.49C36.1699 420.19 35.3999 420 34.6999 419.8C31.8899 419.09 30.0799 418.99 30.0899 418.89H30.0999Z" fill="#263238"/>
<path d="M484.03 105.48C481.09 106.16 479.66 109.54 479.38 112.54C479.1 115.54 479.48 118.72 478.22 121.46C476.8 124.55 473.41 126.82 473.29 130.21C473.22 132.28 474.45 134.23 474.39 136.3C474.29 139.7 470.83 142.27 470.65 145.66C470.52 148.11 472.15 150.45 471.76 152.87C471.46 154.75 469.99 156.23 469.37 158.04C468.14 161.63 470.6 165.59 473.82 167.61C477.4 169.86 481.99 170.45 486.02 169.16C490.05 167.87 493.45 164.74 495.06 160.82C496.84 156.5 496.45 151.64 496.06 146.98C494.86 132.47 493.96 117.94 493.37 103.4" fill="#263238"/>
<path d="M475.49 156.66C475.43 156.6 476.29 156.35 476.83 155.06C477.09 154.43 477.23 153.59 477.17 152.62C477.14 151.64 476.8 150.58 476.44 149.38C476.11 148.19 475.67 146.81 475.92 145.28C476.17 143.72 477.29 142.44 478.3 141.19C478.81 140.55 479.33 139.89 479.65 139.14C479.99 138.4 480.06 137.54 479.81 136.74C479.29 135.11 477.69 133.9 476.96 132.02C476.6 131.07 476.59 130.04 476.8 129.1C477 128.16 477.38 127.3 477.77 126.48C478.55 124.85 479.42 123.36 479.76 121.77C480.46 118.6 480.13 115.57 480.61 113.08C481.04 110.59 482.1 108.71 483.14 107.75C483.65 107.25 484.14 106.99 484.46 106.81C484.8 106.66 484.98 106.6 484.99 106.61C485.02 106.67 484.25 106.9 483.28 107.89C482.32 108.86 481.35 110.7 480.97 113.14C480.77 114.35 480.74 115.72 480.69 117.18C480.64 118.64 480.59 120.23 480.22 121.87C479.87 123.53 478.99 125.09 478.23 126.68C477.48 128.25 476.79 130.09 477.45 131.81C478.09 133.51 479.7 134.72 480.3 136.56C480.6 137.48 480.5 138.49 480.11 139.31C479.74 140.14 479.2 140.83 478.68 141.47C477.63 142.73 476.59 143.94 476.35 145.34C476.1 146.73 476.49 148.08 476.8 149.26C477.13 150.45 477.46 151.57 477.47 152.59C477.5 153.6 477.33 154.48 477.02 155.12C476.72 155.77 476.3 156.18 476 156.38C475.69 156.59 475.5 156.64 475.5 156.64L475.49 156.66Z" fill="#455A64"/>
<path d="M467.62 180.37L458.59 206.39L420.95 208.41L414.67 222.38L453.97 226.36C461.81 229.6 470.76 225.63 473.62 217.65L484.11 188.37L467.62 180.38V180.37Z" fill="#B78876"/>
<path d="M545.48 425.7C545.48 425.7 517.89 338.08 517.31 335.24C516.78 332.67 527.32 269.62 528.65 253.3L491.38 254.69C491.38 254.69 491.38 254.79 491.38 254.96L475.54 255.84L489.73 435.03H506.88L505.18 375.58C515.76 403.98 530.91 432.91 530.91 432.91L545.49 425.7H545.48Z" fill="#B78876"/>
<path d="M505.87 396.88C505.89 396.34 505.66 376.96 505.66 376.96C505.45 378.12 499.08 360.14 499.24 359.04C499.32 358.47 505.87 396.88 505.87 396.88Z" fill="#A36957"/>
<path d="M498.51 350.53C498.51 350.53 498.43 350.92 498.4 351.62C498.36 352.32 498.35 353.34 498.42 354.59C498.44 355.22 498.51 355.9 498.59 356.64C498.68 357.37 498.78 358.16 498.95 358.97C499.26 360.61 499.74 362.38 500.35 364.19C501.6 367.81 502.97 370.98 503.95 373.29C504.41 374.34 504.81 375.24 505.14 376C505.43 376.64 505.61 376.98 505.65 376.96C505.69 376.95 505.58 376.57 505.35 375.91C505.12 375.25 504.77 374.3 504.32 373.13C503.44 370.79 502.13 367.6 500.89 364C500.28 362.2 499.8 360.46 499.46 358.86C499.28 358.06 499.16 357.29 499.05 356.57C498.95 355.85 498.86 355.17 498.81 354.55C498.69 353.31 498.64 352.3 498.61 351.61C498.58 350.91 498.54 350.53 498.5 350.53H498.51Z" fill="#A36957"/>
<path d="M489.39 435.91V434.3L506.95 433.53L507 440.17L505.92 440.24C501.1 440.52 481.38 441.34 478.15 440.37C474.55 439.29 489.39 435.9 489.39 435.9V435.91Z" fill="#455A64"/>
<path d="M507.25 439.78C507.25 439.78 507.15 439.8 506.95 439.81C506.69 439.83 506.41 439.84 506.09 439.87C505.23 439.91 504.17 439.96 502.91 440.02C500.23 440.13 496.52 440.22 492.42 440.24C488.32 440.26 484.61 440.19 481.93 440.11C480.68 440.06 479.62 440.02 478.75 439.99C478.43 439.97 478.15 439.96 477.89 439.94C477.69 439.93 477.59 439.92 477.59 439.91C477.59 439.91 477.69 439.9 477.89 439.9C478.15 439.9 478.43 439.9 478.75 439.9C479.61 439.91 480.68 439.93 481.93 439.95C484.61 439.99 488.32 440.04 492.42 440.02C496.51 440 500.22 439.93 502.91 439.86C504.16 439.83 505.22 439.8 506.09 439.78C506.41 439.78 506.69 439.77 506.95 439.76C507.15 439.76 507.25 439.76 507.25 439.76V439.78Z" fill="#263238"/>
<path d="M483.7 440.34C483.64 440.34 483.58 439.59 483.1 438.83C482.63 438.06 481.98 437.67 482.01 437.62C482.02 437.57 482.77 437.89 483.28 438.72C483.79 439.54 483.75 440.36 483.7 440.35V440.34Z" fill="#263238"/>
<path d="M488.85 437.71C488.85 437.71 488.55 437.44 488.3 437.04C488.04 436.64 487.88 436.29 487.92 436.26C487.97 436.23 488.22 436.53 488.47 436.93C488.73 437.33 488.89 437.68 488.85 437.71Z" fill="#263238"/>
<path d="M490.26 436.95C490.26 436.95 489.94 436.81 489.64 436.54C489.34 436.27 489.12 436.02 489.16 435.97C489.2 435.93 489.48 436.11 489.78 436.38C490.08 436.65 490.3 436.9 490.26 436.95Z" fill="#263238"/>
<path d="M491.15 435.3C491.15 435.36 490.74 435.41 490.24 435.42C489.74 435.42 489.33 435.39 489.33 435.33C489.33 435.27 489.74 435.22 490.24 435.21C490.74 435.21 491.15 435.24 491.15 435.3Z" fill="#263238"/>
<path d="M491.46 434.141C491.48 434.191 491.04 434.391 490.44 434.441C489.85 434.491 489.38 434.361 489.39 434.301C489.39 434.241 489.86 434.271 490.42 434.231C490.98 434.191 491.43 434.081 491.45 434.141H491.46Z" fill="#263238"/>
<path d="M488.25 436.18C488.25 436.18 487.82 436.26 487.13 436.18C486.78 436.14 486.37 436.06 485.93 435.92C485.71 435.84 485.48 435.79 485.24 435.64C485.13 435.57 485 435.46 484.96 435.29C484.91 435.12 485 434.93 485.13 434.84C486.2 434.28 487.28 434.88 487.68 435.43C487.9 435.71 488 435.99 488.05 436.18C488.1 436.37 488.09 436.48 488.08 436.48C488.04 436.49 488 436.04 487.56 435.52C487.34 435.27 487.02 435.02 486.6 434.9C486.2 434.78 485.64 434.75 485.26 435C485.08 435.13 485.15 435.34 485.35 435.46C485.54 435.58 485.77 435.65 485.98 435.73C486.41 435.87 486.8 435.97 487.14 436.03C487.81 436.15 488.24 436.15 488.24 436.18H488.25Z" fill="#263238"/>
<path d="M487.96 436.24C487.96 436.24 487.78 435.97 487.83 435.46C487.86 435.21 487.95 434.92 488.13 434.64C488.33 434.39 488.58 434.05 489.06 434.06C489.32 434.09 489.45 434.39 489.41 434.58C489.39 434.78 489.3 434.95 489.22 435.08C489.05 435.36 488.87 435.59 488.69 435.76C488.34 436.11 488.06 436.24 488.05 436.22C488.03 436.19 488.27 436.02 488.58 435.66C488.73 435.48 488.9 435.26 489.05 434.98C489.2 434.74 489.31 434.32 489.03 434.27C488.75 434.24 488.46 434.52 488.29 434.75C488.11 434.99 488.02 435.26 487.97 435.48C487.89 435.94 487.99 436.23 487.95 436.24H487.96Z" fill="#263238"/>
<path d="M506.88 434.99C506.88 434.99 506.38 434.94 505.59 435.04C504.81 435.13 503.72 435.45 502.78 436.21C501.84 436.97 501.28 437.96 501.03 438.7C500.77 439.45 500.74 439.95 500.7 439.95C500.69 439.95 500.68 439.82 500.7 439.6C500.72 439.37 500.77 439.05 500.89 438.66C501.12 437.88 501.67 436.84 502.65 436.05C503.63 435.26 504.77 434.95 505.58 434.89C505.99 434.86 506.32 434.88 506.54 434.91C506.76 434.94 506.89 434.98 506.88 434.99Z" fill="#263238"/>
<path d="M498.46 438.38C498.46 438.43 497.33 438.62 495.91 438.62C494.49 438.62 493.35 438.46 493.35 438.4C493.35 438.34 494.5 438.41 495.9 438.4C497.31 438.4 498.45 438.31 498.45 438.37L498.46 438.38Z" fill="#263238"/>
<path d="M501.89 438.35C501.89 438.35 501.8 438.59 501.68 438.85C501.56 439.11 501.5 439.34 501.44 439.34C501.38 439.34 501.35 439.06 501.49 438.76C501.62 438.46 501.85 438.3 501.89 438.34V438.35Z" fill="#263238"/>
<path d="M503.17 436.74C503.17 436.74 503.1 436.96 502.92 437.15C502.74 437.33 502.56 437.45 502.52 437.41C502.48 437.37 502.59 437.19 502.77 437C502.95 436.82 503.13 436.7 503.17 436.74Z" fill="#263238"/>
<path d="M505.02 435.99C505.01 436.05 504.78 436.05 504.52 436.14C504.26 436.23 504.08 436.37 504.03 436.33C503.98 436.3 504.13 436.05 504.45 435.94C504.77 435.83 505.04 435.94 505.02 435.99Z" fill="#263238"/>
<path d="M506.33 435.64C506.35 435.69 506.25 435.78 506.11 435.84C505.97 435.9 505.83 435.9 505.81 435.84C505.79 435.79 505.89 435.7 506.03 435.64C506.17 435.58 506.31 435.58 506.33 435.64Z" fill="#263238"/>
<path d="M530.56 434.36L529.89 432.89L545.6 424.99L548.37 431.03L547.41 431.54C543.13 433.77 525.47 442.59 522.13 443.03C518.4 443.52 530.56 434.35 530.56 434.35V434.36Z" fill="#455A64"/>
<path d="M548.43 430.571C548.43 430.571 548.34 430.631 548.17 430.721C547.94 430.841 547.69 430.971 547.41 431.121C546.64 431.511 545.69 431.991 544.57 432.561C542.17 433.761 538.82 435.361 535.09 437.061C531.36 438.751 527.95 440.211 525.46 441.241C524.3 441.711 523.31 442.111 522.51 442.431C522.21 442.551 521.95 442.651 521.7 442.741C521.51 442.811 521.42 442.841 521.41 442.831C521.41 442.831 521.5 442.781 521.68 442.701C521.92 442.601 522.18 442.481 522.47 442.351C523.26 442.011 524.24 441.591 525.39 441.101C527.86 440.041 531.26 438.561 534.99 436.871C538.72 435.181 542.07 433.591 544.49 432.431C545.62 431.891 546.58 431.431 547.36 431.051C547.65 430.911 547.91 430.791 548.14 430.681C548.32 430.601 548.42 430.561 548.42 430.561L548.43 430.571Z" fill="#263238"/>
<path d="M527.18 440.74C527.12 440.77 526.77 440.1 526.01 439.6C525.27 439.09 524.51 439 524.52 438.94C524.51 438.89 525.33 438.88 526.13 439.43C526.94 439.97 527.23 440.73 527.18 440.74Z" fill="#263238"/>
<path d="M530.8 436.22C530.8 436.22 530.42 436.1 530.02 435.84C529.62 435.58 529.33 435.33 529.36 435.28C529.39 435.23 529.74 435.4 530.14 435.66C530.54 435.92 530.83 436.17 530.8 436.22Z" fill="#263238"/>
<path d="M531.78 434.96C531.76 435.02 531.44 434.96 531.05 434.84C530.66 434.72 530.37 434.57 530.38 434.52C530.4 434.46 530.72 434.52 531.11 434.64C531.5 434.76 531.79 434.91 531.78 434.96Z" fill="#263238"/>
<path d="M531.91 433.08C531.93 433.13 531.58 433.35 531.13 433.56C530.67 433.77 530.28 433.9 530.26 433.85C530.24 433.8 530.59 433.58 531.04 433.37C531.5 433.16 531.89 433.03 531.91 433.08Z" fill="#263238"/>
<path d="M531.71 431.9C531.71 431.9 531.43 432.31 530.91 432.59C530.39 432.88 529.91 432.95 529.9 432.9C529.88 432.84 530.32 432.68 530.81 432.41C531.31 432.14 531.68 431.86 531.72 431.91L531.71 431.9Z" fill="#263238"/>
<path d="M529.63 435.08C529.63 435.08 529.27 435.33 528.6 435.54C528.27 435.64 527.86 435.74 527.4 435.79C527.17 435.81 526.94 435.85 526.66 435.82C526.53 435.8 526.37 435.75 526.26 435.62C526.15 435.49 526.15 435.28 526.23 435.14C526.98 434.19 528.21 434.3 528.8 434.64C529.12 434.81 529.32 435.02 529.44 435.17C529.56 435.33 529.6 435.43 529.59 435.43C529.56 435.46 529.34 435.06 528.73 434.77C528.43 434.63 528.03 434.54 527.6 434.6C527.19 434.66 526.66 434.86 526.42 435.24C526.31 435.43 526.46 435.6 526.69 435.62C526.91 435.65 527.16 435.62 527.38 435.61C527.83 435.57 528.23 435.49 528.56 435.41C529.22 435.24 529.61 435.07 529.63 435.1V435.08Z" fill="#263238"/>
<path d="M529.39 435.25C529.39 435.25 529.11 435.07 528.95 434.59C528.87 434.35 528.83 434.05 528.89 433.72C528.97 433.41 529.06 432.99 529.51 432.81C529.76 432.73 530.35 433.24 530.39 433.43C530.45 433.62 530.09 433.52 530.08 433.68C530.04 434 529.97 434.29 529.88 434.52C529.7 434.98 529.5 435.21 529.48 435.2C529.45 435.18 529.6 434.92 529.74 434.47C529.81 434.24 529.87 433.97 529.89 433.66C529.93 433.38 529.85 432.95 529.57 433.02C529.3 433.11 529.16 433.48 529.09 433.76C529.03 434.05 529.05 434.33 529.1 434.56C529.21 435.01 529.43 435.23 529.4 435.26L529.39 435.25Z" fill="#263238"/>
<path d="M546.13 426.36C546.13 426.36 545.65 426.52 544.97 426.93C544.29 427.33 543.43 428.07 542.88 429.15C542.33 430.23 542.23 431.36 542.3 432.14C542.37 432.93 542.55 433.4 542.51 433.41C542.5 433.41 542.44 433.3 542.36 433.09C542.28 432.88 542.2 432.56 542.14 432.15C542.03 431.35 542.1 430.17 542.68 429.04C543.25 427.92 544.17 427.16 544.88 426.79C545.24 426.6 545.55 426.48 545.77 426.42C545.99 426.36 546.11 426.34 546.12 426.35L546.13 426.36Z" fill="#263238"/>
<path d="M539.84 432.9C539.84 432.9 538.9 433.58 537.61 434.17C536.32 434.76 535.21 435.07 535.19 435.02C535.17 434.96 536.24 434.56 537.52 433.98C538.8 433.4 539.81 432.85 539.84 432.91V432.9Z" fill="#263238"/>
<path d="M542.95 431.47C543.01 431.49 542.96 431.73 542.97 432.02C542.97 432.31 543.01 432.54 542.95 432.57C542.9 432.59 542.75 432.36 542.75 432.02C542.75 431.69 542.89 431.45 542.95 431.47Z" fill="#263238"/>
<path d="M543.47 429.47C543.52 429.49 543.5 429.7 543.41 429.94C543.32 430.18 543.2 430.36 543.15 430.34C543.1 430.32 543.12 430.11 543.21 429.87C543.3 429.63 543.42 429.45 543.47 429.47Z" fill="#263238"/>
<path d="M544.85 428.04C544.86 428.1 544.65 428.19 544.45 428.38C544.25 428.56 544.14 428.77 544.08 428.75C544.02 428.75 544.06 428.45 544.3 428.22C544.55 427.99 544.83 427.98 544.84 428.03L544.85 428.04Z" fill="#263238"/>
<path d="M545.9 427.18C545.9 427.18 545.89 427.34 545.78 427.46C545.67 427.57 545.55 427.63 545.51 427.59C545.47 427.55 545.52 427.43 545.63 427.31C545.74 427.2 545.86 427.14 545.9 427.18Z" fill="#263238"/>
<path d="M526.23 223.64L523.3 187.94L538.33 188.21C538.33 188.21 539.03 182.95 536.81 171.4C535.45 164.32 530.74 159.98 525.45 157.4V157.31L524.99 157.19C518.26 154.04 511.22 153.6 511.22 153.6L492.77 153.81C492.77 153.81 478.68 152.05 470.88 162.1C467.88 165.97 458.58 192.46 458.58 192.46L480.72 203.12L478.61 188.43C478.61 188.43 479.03 199.08 480.39 202.45C481.15 204.33 483.34 210.17 483.34 210.17L483.05 227.78L526.21 223.64H526.23Z" fill="#4272F6"/>
<path d="M516.05 182.76L513.32 194.42H539.15L537.45 174.86L516.05 182.76Z" fill="#4272F6"/>
<path d="M539.15 194.421C539.15 194.341 537.85 194.211 535.73 194.081C533.61 193.961 530.68 193.851 527.45 193.871C524.21 193.891 521.28 194.031 519.17 194.191C517.05 194.361 515.75 194.541 515.76 194.611C515.76 194.691 517.08 194.661 519.19 194.591C521.31 194.531 524.23 194.451 527.45 194.431C530.68 194.421 533.6 194.461 535.72 194.481C537.84 194.501 539.15 194.501 539.15 194.421Z" fill="#263238"/>
<path d="M514.94 174.771C514.86 174.771 514.83 175.911 514.85 177.741C514.87 179.571 514.94 182.101 515.04 184.891C515.15 187.681 515.28 190.211 515.4 192.031C515.52 193.861 515.64 194.98 515.72 194.98C515.8 194.98 515.83 193.84 515.81 192.01C515.79 190.18 515.72 187.651 515.62 184.861C515.51 182.071 515.38 179.551 515.26 177.721C515.14 175.891 515.02 174.771 514.94 174.771Z" fill="#263238"/>
<g opacity="0.3">
<path d="M491.43 184.87C491.43 184.87 497.17 227.44 513.31 226.31C513.31 226.31 520.58 226.22 522.91 221.39V219.49L491.43 184.87Z" fill="black"/>
</g>
<g opacity="0.3">
<path d="M514.94 177.28L511.85 198.15L513.85 201.81L517.14 194.65L515.75 194.61L514.94 177.28Z" fill="black"/>
</g>
<path d="M483.35 210.16C483.35 210.16 483.16 209.82 482.91 209.16C482.66 208.51 482.33 207.55 481.94 206.37C481.17 203.99 480.22 200.67 479.47 196.92C478.73 193.17 478.36 189.73 478.25 187.23C478.19 185.98 478.17 184.97 478.19 184.27C478.2 183.57 478.23 183.18 478.26 183.18C478.34 183.18 478.4 184.72 478.61 187.2C478.82 189.68 479.24 193.09 479.98 196.81C480.72 200.53 481.61 203.85 482.29 206.25C482.61 207.36 482.88 208.31 483.1 209.09C483.29 209.76 483.38 210.14 483.34 210.15L483.35 210.16Z" fill="#263238"/>
<path d="M489.88 222.39C489.74 222.43 489.34 221.51 488.99 220.34C488.63 219.17 488.46 218.18 488.6 218.14C488.74 218.1 489.14 219.02 489.49 220.19C489.85 221.36 490.02 222.35 489.88 222.39Z" fill="#263238"/>
<path d="M492.11 222.23C491.98 222.26 491.54 220.89 491.52 219.12C491.49 217.35 491.88 215.96 492.02 215.99C492.17 216.02 492.02 217.4 492.04 219.11C492.06 220.82 492.26 222.2 492.11 222.23Z" fill="#263238"/>
<path d="M481.18 203.6C481.12 203.73 475.96 201.28 469.67 198.14C463.38 195 458.33 192.34 458.39 192.21C458.45 192.08 463.61 194.53 469.9 197.67C476.19 200.81 481.24 203.47 481.18 203.6Z" fill="#263238"/>
<path d="M490.26 157.25C490.38 152.19 490.4 146.86 490.4 146.86C490.4 146.86 483.91 145.61 482.78 137.07C481.7 128.93 484.72 109.82 484.72 109.82C494.2 106.24 504.05 109.48 510.54 117.16L508.93 158.23C508.74 163 504.49 166.64 499.39 166.4C494.24 166.16 490.15 162.06 490.26 157.24V157.25Z" fill="#B78876"/>
<path d="M484.23 125.1C484.19 125.68 484.65 126.18 485.25 126.23C485.85 126.28 486.36 125.85 486.4 125.28C486.44 124.7 485.98 124.2 485.38 124.15C484.78 124.1 484.26 124.53 484.23 125.1Z" fill="#263238"/>
<path d="M483.83 123.67C483.96 123.82 484.8 123.23 485.98 123.26C487.15 123.28 488 123.9 488.13 123.76C488.19 123.7 488.06 123.44 487.7 123.16C487.34 122.88 486.72 122.6 485.98 122.58C485.25 122.57 484.63 122.82 484.27 123.08C483.9 123.35 483.77 123.6 483.84 123.67H483.83Z" fill="#263238"/>
<path d="M496.14 125.84C496.1 126.42 496.56 126.92 497.16 126.97C497.76 127.02 498.27 126.59 498.31 126.02C498.35 125.45 497.89 124.94 497.29 124.89C496.69 124.84 496.17 125.27 496.14 125.84Z" fill="#263238"/>
<path d="M496.06 124.41C496.19 124.56 497.03 123.97 498.21 124C499.38 124.02 500.23 124.64 500.36 124.5C500.42 124.44 500.29 124.18 499.92 123.89C499.56 123.61 498.94 123.33 498.2 123.31C497.47 123.3 496.85 123.55 496.49 123.81C496.12 124.08 495.99 124.33 496.06 124.4V124.41Z" fill="#263238"/>
<path d="M491.57 133C491.57 132.93 490.85 132.79 489.67 132.61C489.37 132.57 489.09 132.5 489.04 132.3C488.98 132.08 489.11 131.76 489.26 131.42C489.56 130.7 489.87 129.95 490.2 129.16C491.51 125.94 492.47 123.3 492.34 123.24C492.21 123.19 491.04 125.75 489.72 128.97C489.4 129.76 489.1 130.52 488.81 131.24C488.69 131.58 488.48 131.96 488.62 132.41C488.69 132.64 488.91 132.8 489.1 132.86C489.29 132.92 489.46 132.93 489.61 132.94C490.8 133.03 491.54 133.06 491.54 132.99L491.57 133Z" fill="#263238"/>
<path d="M490.41 146.87C490.41 146.87 496.12 147.39 501.88 144.13C501.88 144.13 498.97 149.9 490.48 148.88L490.42 146.87H490.41Z" fill="#A36957"/>
<path d="M499.81 121.02C499.57 121.39 498.68 121.22 497.68 121.04C496.68 120.84 495.79 120.66 495.71 120.23C495.61 119.82 496.64 119.25 497.98 119.5C499.31 119.75 500.06 120.66 499.82 121.01L499.81 121.02Z" fill="#263238"/>
<path d="M488.15 119.3C488.06 119.73 487.1 119.88 486 119.94C484.9 119.98 483.93 119.92 483.8 119.5C483.67 119.1 484.6 118.44 485.93 118.38C487.26 118.32 488.24 118.89 488.15 119.3Z" fill="#263238"/>
<path d="M491.59 135.81C491.34 135.74 491.06 135.88 490.94 136.11C490.79 136.38 490.86 136.74 491.09 136.94C491.32 137.14 491.7 137.14 491.94 136.95C492.18 136.76 492.26 136.39 492.12 136.12C491.98 135.85 491.64 135.7 491.34 135.79" fill="#A36957"/>
<path d="M491.87 135.93C491.92 135.88 491.68 135.59 491.17 135.71C490.93 135.76 490.62 135.97 490.53 136.34C490.44 136.68 490.53 137.12 490.88 137.4C491.26 137.66 491.71 137.61 492 137.4C492.32 137.19 492.41 136.81 492.36 136.57C492.26 136.04 491.87 135.96 491.86 136.03C491.82 136.1 492 136.28 491.96 136.59C491.94 136.74 491.87 136.89 491.72 136.96C491.58 137.04 491.34 137.04 491.21 136.94C491.07 136.84 491 136.62 491.03 136.46C491.05 136.29 491.16 136.17 491.3 136.09C491.58 135.93 491.82 136.01 491.86 135.94L491.87 135.93Z" fill="#263238"/>
<path d="M506.62 127.21C505.61 129.55 503.14 131.36 503.48 133.89C503.7 135.52 504.75 137.05 504.55 138.68C504.29 140.73 502.16 142.16 501.86 144.21C501.49 146.72 503.93 148.67 504.91 151.02C506.33 154.43 504.51 158.27 504.47 161.97C504.4 167.63 509.22 172.92 514.86 173.39C517.14 173.58 519.71 172.89 520.9 170.93C521.88 169.31 521.68 167.26 522.27 165.46C523.14 162.78 525.69 160.83 526.23 158.06C527.21 153.02 521.12 148.86 521.52 143.74C521.69 141.55 523.04 139.65 523.61 137.53C524.36 134.76 523.67 131.64 521.82 129.44C520.32 127.65 518.14 126.48 516.86 124.53C515.41 122.32 515.36 119.51 514.81 116.92C513.48 110.61 508.74 105.13 502.69 102.9C496.64 100.67 489.47 101.76 484.36 105.69C484.36 105.69 482.91 112.28 489.67 113.38C496.44 114.48 499.57 113.21 500.33 115.92C500.33 115.92 499.56 119.09 502.36 122.11C505.16 125.14 507.79 124.5 506.61 127.22L506.62 127.21Z" fill="#263238"/>
<path d="M517.41 172.92C517.41 172.92 517.2 172.92 516.79 172.86C516.39 172.8 515.8 172.66 515.07 172.4C513.63 171.87 511.58 170.72 509.84 168.52C508.97 167.43 508.16 166.11 507.61 164.56C507.05 163.02 506.73 161.27 506.7 159.43C506.66 157.59 506.92 155.65 507.42 153.72C507.67 152.75 508 151.79 508.38 150.83C508.75 149.87 509.21 148.94 509.48 147.96C509.76 146.98 509.73 145.98 509.48 145.03C509.22 144.08 508.77 143.18 508.34 142.29C507.9 141.4 507.46 140.52 507.17 139.58C506.88 138.65 506.77 137.64 506.96 136.71C507.36 134.83 508.5 133.43 509.18 132C509.89 130.58 510.12 129.09 510.09 127.74C509.97 125.02 508.81 123 507.86 121.84C506.87 120.68 506.12 120.23 506.16 120.19C506.16 120.19 506.95 120.56 508.01 121.71C509.03 122.86 510.28 124.9 510.45 127.72C510.51 129.11 510.3 130.69 509.57 132.18C508.88 133.66 507.78 135.07 507.43 136.79C507.08 138.53 507.9 140.32 508.79 142.06C509.23 142.95 509.69 143.87 509.97 144.89C510.25 145.9 510.29 147.05 509.98 148.09C509.7 149.14 509.23 150.08 508.86 151.02C508.49 151.96 508.16 152.91 507.91 153.85C507.41 155.74 507.15 157.63 507.18 159.42C507.19 163.02 508.43 166.18 510.12 168.29C511.78 170.46 513.74 171.63 515.14 172.2C516.56 172.77 517.42 172.86 517.4 172.92H517.41Z" fill="#455A64"/>
<path d="M516.42 122.46C516.42 122.46 515.9 122.59 514.93 122.68C513.97 122.76 512.55 122.87 510.81 122.57C509.12 122.26 506.97 121.43 505.61 119.42C504.94 118.41 504.68 117.19 504.25 116.06C503.84 114.92 503.05 113.93 501.97 113.25C499.78 111.86 497.21 111.69 494.96 111.42C492.7 111.16 490.57 110.68 489.13 109.6C487.68 108.57 486.94 107.23 486.74 106.26C486.63 105.78 486.64 105.39 486.66 105.13C486.7 104.87 486.72 104.74 486.74 104.74C486.8 104.74 486.67 105.29 486.93 106.2C487.17 107.1 487.92 108.34 489.33 109.29C490.72 110.27 492.75 110.7 495 110.93C497.23 111.18 499.9 111.32 502.24 112.8C503.4 113.52 504.29 114.65 504.71 115.86C505.16 117.05 505.4 118.22 506 119.14C507.22 121 509.24 121.85 510.86 122.19C512.53 122.53 513.94 122.48 514.9 122.46C515.86 122.43 516.4 122.4 516.4 122.44L516.42 122.46Z" fill="#455A64"/>
<path d="M513.93 114.321C513.93 114.321 513.53 114.471 512.76 114.491C512 114.511 510.86 114.381 509.6 113.781C508.97 113.481 508.33 113.061 507.74 112.491C507.14 111.921 506.65 111.191 506.19 110.421C505.29 108.901 504.42 107.021 502.55 106.251C500.72 105.461 498.7 105.641 496.95 105.761C495.18 105.931 493.52 105.991 492.17 105.721C490.81 105.481 489.79 104.921 489.22 104.401C488.93 104.141 488.74 103.911 488.63 103.741C488.52 103.571 488.47 103.481 488.48 103.471C488.52 103.441 488.76 103.791 489.35 104.241C489.93 104.691 490.92 105.171 492.23 105.361C493.55 105.571 495.13 105.491 496.91 105.291C498.67 105.151 500.75 104.931 502.76 105.781C503.76 106.201 504.57 106.951 505.15 107.761C505.74 108.571 506.16 109.421 506.61 110.181C507.05 110.951 507.5 111.651 508.05 112.191C508.59 112.741 509.18 113.161 509.77 113.461C510.94 114.071 512.03 114.261 512.77 114.301C513.51 114.341 513.93 114.291 513.94 114.331L513.93 114.321Z" fill="#455A64"/>
<path d="M520.4 170.76C520.35 170.74 520.67 170.09 521.04 168.86C521.41 167.63 521.77 165.79 521.71 163.5C521.63 161.23 521.09 158.48 519.58 155.86C518.85 154.55 517.74 153.38 516.83 151.95C516.38 151.23 515.99 150.43 515.82 149.54C515.65 148.65 515.75 147.7 516.04 146.84C516.6 145.11 517.61 143.66 517.82 142.07C518.09 140.48 517.28 139.03 516.52 137.73C516.13 137.07 515.75 136.42 515.45 135.74C515.15 135.06 514.96 134.34 514.88 133.65C514.73 132.26 514.89 130.98 514.99 129.84C515.28 127.56 515.07 125.68 514.52 124.53C513.99 123.36 513.29 123.01 513.34 122.96C513.34 122.96 513.39 122.97 513.46 123.02C513.53 123.07 513.65 123.13 513.78 123.25C514.05 123.47 514.4 123.85 514.7 124.44C515.33 125.61 515.6 127.57 515.36 129.87C515.28 131.02 515.14 132.28 515.31 133.6C515.44 134.93 516.13 136.18 516.93 137.48C517.32 138.14 517.73 138.83 518.02 139.61C518.32 140.38 518.45 141.27 518.32 142.13C518.08 143.88 517.05 145.36 516.53 146.98C516.26 147.79 516.18 148.63 516.32 149.43C516.47 150.23 516.82 150.98 517.25 151.67C518.11 153.05 519.23 154.24 519.98 155.61C521.51 158.32 522.03 161.15 522.07 163.48C522.09 165.82 521.66 167.69 521.23 168.91C521.01 169.52 520.82 169.99 520.65 170.29C520.5 170.6 520.41 170.75 520.4 170.75V170.76Z" fill="#455A64"/>
<path d="M479.66 357.09C479.66 357.09 472.93 293.25 472.54 269.66C472.15 246.07 483.15 222.79 483.15 222.79L526.23 220.97C526.23 220.97 534.75 244.91 534.9 254.96C535.2 274.5 529.71 293.79 530.34 309.29L531.78 357.09" fill="#263238"/>
<path d="M533.22 278.6C533.22 278.6 532.98 278.8 532.52 279.13C532.4 279.22 532.27 279.31 532.13 279.41C532 279.52 531.86 279.67 531.71 279.81C531.41 280.1 531.05 280.43 530.75 280.88C529.36 282.58 528.34 285.63 527.38 289.43C526.85 291.32 526.31 293.43 525.2 295.5C524.9 296 524.63 296.54 524.24 297.01C524.05 297.25 523.88 297.51 523.68 297.74L523.02 298.4C522.12 299.29 520.98 299.95 519.78 300.48C517.37 301.54 514.65 302.04 512.16 303.29C509.66 304.51 507.78 306.87 506.63 309.59C505.42 312.3 504.68 315.14 503.67 317.8C502.68 320.44 501.32 323 499.17 324.62C497.04 326.3 494.4 326.68 492.12 326.83C489.8 326.97 487.65 326.9 485.73 327.19C483.81 327.46 482.11 328.06 480.91 329.01C479.7 329.96 479 331.15 478.67 332.17C478.33 333.2 478.39 334.07 478.5 334.62C478.61 335.18 478.77 335.45 478.73 335.46C478.73 335.46 478.54 335.21 478.39 334.64C478.24 334.08 478.14 333.18 478.47 332.1C478.78 331.03 479.48 329.79 480.72 328.78C481.96 327.77 483.71 327.12 485.67 326.82C487.63 326.5 489.8 326.55 492.09 326.39C494.35 326.23 496.87 325.83 498.88 324.23C500.91 322.69 502.22 320.22 503.19 317.61C504.18 314.98 504.92 312.14 506.15 309.37C507.31 306.6 509.3 304.09 511.92 302.83C514.51 301.55 517.23 301.06 519.58 300.04C520.75 299.53 521.84 298.9 522.7 298.07L523.34 297.44C523.54 297.22 523.7 296.97 523.88 296.75C524.26 296.3 524.52 295.78 524.81 295.3C525.91 293.3 526.46 291.21 527.02 289.33C528.03 285.55 529.11 282.46 530.59 280.76C530.91 280.31 531.29 279.98 531.6 279.7C531.76 279.56 531.9 279.42 532.04 279.31C532.19 279.22 532.33 279.13 532.45 279.05C532.94 278.74 533.2 278.59 533.21 278.6H533.22Z" fill="#FAFAFA"/>
<path d="M533.49 249.061C533.49 249.061 533.53 249.351 533.55 249.921C533.55 250.481 533.49 251.321 533.25 252.361C532.75 254.441 531.23 257.301 528.38 259.891C526.97 261.191 525.28 262.441 523.33 263.581C521.4 264.731 519.27 265.821 517.09 267.051C514.92 268.291 512.67 269.681 510.7 271.541C508.7 273.371 507.21 275.781 505.86 278.341C504.5 280.891 503.3 283.481 501.67 285.731C500.86 286.851 499.95 287.881 498.94 288.751C497.92 289.621 496.81 290.331 495.69 290.921C493.43 292.091 491.13 292.821 489 293.491C486.86 294.151 484.87 294.741 483.12 295.471C481.37 296.191 479.86 297.011 478.64 297.871C477.42 298.741 476.49 299.641 475.83 300.461C474.5 302.111 474.22 303.301 474.14 303.271C474.12 303.271 474.22 302.991 474.42 302.461C474.65 301.951 475.01 301.191 475.67 300.341C476.32 299.491 477.24 298.541 478.47 297.641C479.7 296.741 481.22 295.891 482.98 295.141C484.74 294.381 486.74 293.771 488.87 293.091C490.99 292.411 493.27 291.671 495.47 290.511C496.57 289.931 497.64 289.241 498.62 288.391C499.59 287.541 500.48 286.541 501.26 285.451C502.85 283.251 504.04 280.681 505.41 278.111C506.76 275.551 508.3 273.071 510.36 271.191C512.38 269.291 514.67 267.891 516.86 266.651C519.06 265.421 521.19 264.351 523.12 263.231C525.05 262.131 526.73 260.911 528.14 259.651C530.97 257.141 532.51 254.371 533.06 252.341C533.6 250.291 533.42 249.091 533.5 249.091L533.49 249.061Z" fill="#FAFAFA"/>
<path d="M472.76 273.04C472.76 273.04 472.72 272.98 472.67 272.85C472.63 272.72 472.54 272.52 472.48 272.25C472.36 271.72 472.28 270.87 472.58 269.85C473.14 267.81 475.35 265.28 478.91 264.01C480.68 263.4 482.7 263.03 484.79 262.48C486.86 261.92 489.12 261.14 490.81 259.41C491.65 258.55 492.36 257.54 492.94 256.42C493.51 255.29 493.99 254.08 494.43 252.83C495.33 250.34 496.08 247.63 497.6 245.16C499.11 242.68 501.57 240.95 504.12 240.09C506.66 239.16 509.23 238.74 511.6 238.19C513.99 237.67 516.22 237 518.11 235.97C519.98 234.91 521.46 233.5 522.51 232C524.67 229 525.23 225.93 525.31 223.9C525.36 221.84 525.03 220.71 525.1 220.7C525.1 220.7 525.5 221.8 525.52 223.9C525.5 225.96 524.99 229.11 522.82 232.21C521.76 233.76 520.25 235.23 518.33 236.34C516.39 237.41 514.11 238.11 511.72 238.65C509.33 239.21 506.78 239.64 504.31 240.56C501.82 241.42 499.51 243.05 498.05 245.43C496.58 247.8 495.83 250.48 494.92 252.99C494.47 254.25 493.98 255.48 493.39 256.64C492.78 257.79 492.04 258.85 491.15 259.74C489.36 261.56 487 262.34 484.9 262.89C482.77 263.43 480.77 263.77 479.03 264.35C475.56 265.53 473.36 267.96 472.77 269.9C472.45 270.87 472.49 271.69 472.58 272.22C472.69 272.75 472.78 273.02 472.76 273.03V273.04Z" fill="#FAFAFA"/>
<path d="M529.78 327.021C529.78 327.021 529.82 327.231 529.85 327.651C529.87 328.061 529.85 328.681 529.67 329.461C529.32 331.001 528.13 333.111 525.89 334.861C524.79 335.751 523.46 336.561 521.92 337.211C520.39 337.861 518.7 338.381 516.94 338.931C515.18 339.481 513.33 340.061 511.53 340.901C509.72 341.731 508.05 342.941 506.61 344.491C505.15 346.021 503.89 347.691 502.5 349.161C501.11 350.641 499.53 351.861 497.89 352.771C494.6 354.591 491.19 355.211 488.38 355.241C485.55 355.271 483.31 354.681 481.83 354.151C481.09 353.891 480.53 353.631 480.17 353.441C479.8 353.261 479.61 353.151 479.62 353.141C479.62 353.121 479.83 353.201 480.21 353.351C480.59 353.511 481.15 353.741 481.89 353.971C483.37 354.431 485.59 354.961 488.36 354.881C491.12 354.801 494.45 354.151 497.64 352.361C499.23 351.471 500.75 350.281 502.11 348.821C503.48 347.371 504.73 345.701 506.22 344.141C507.68 342.561 509.45 341.291 511.3 340.451C513.15 339.591 515.02 339.021 516.79 338.481C518.56 337.941 520.24 337.441 521.74 336.821C523.24 336.201 524.56 335.421 525.64 334.571C527.85 332.891 529.05 330.891 529.45 329.401C529.84 327.901 529.69 327.021 529.76 327.021H529.78Z" fill="#FAFAFA"/>
<path d="M524.87 194.46L516.54 194.66C515.99 197.47 514.66 199.39 514.66 199.39C507.69 187.3 502.29 171.1 500.95 164.59C501.15 163.94 501.38 163.22 501.67 162.42C502 161.49 501.72 159.73 501.56 158.76C501.33 157.31 500.92 155.36 500.8 154.46C500.43 151.71 499.99 151.28 499.03 151.59C497.72 152.01 499.57 159.32 498.5 159.47C497.93 159.56 497.22 157.05 497.02 155C496.82 152.95 495.89 146.63 495.21 146.21C494.22 145.59 493.35 146.57 493.6 148.61C493.85 150.68 494.17 156.85 493.09 156.93C492.02 157.01 491.12 146.54 491.12 146.54C491.12 146.54 491.29 144.26 490.03 144.32C487.76 144.42 489.53 155.46 489.73 156.5C489.87 157.23 488.69 157.36 488.59 156.57C488.48 155.76 487.94 146.1 485.63 146.18C483.86 146.24 487 155.28 486.01 157.37C485.02 159.46 484.33 150.26 482.63 150.38C482 150.43 481.54 150.55 482.69 155.76C483.31 158.56 485.14 163.71 486.73 167.97C489.41 182.42 501.17 228.65 519.6 220.18C529.91 215.45 534.1 194.46 534.1 194.46H524.88H524.87Z" fill="#B78876"/>
<path d="M489.32 157.2C489.32 157.2 489.4 157.21 489.56 157.17C489.7 157.13 489.98 156.95 489.94 156.59C489.92 155.97 489.82 155.07 489.68 153.9C489.57 152.72 489.22 151.31 489.22 149.64C489.21 148.8 489.22 147.9 489.28 146.95C489.31 146.47 489.32 145.98 489.43 145.51C489.51 145.06 489.81 144.54 490.16 144.6H490.2H490.22C490.58 144.58 490.85 144.86 490.97 145.28C491.1 145.69 491.13 146.16 491.1 146.62V146.64V146.65C491.33 149.21 491.59 152.01 492.17 155C492.25 155.37 492.33 155.75 492.45 156.13C492.51 156.32 492.57 156.51 492.66 156.7C492.71 156.8 492.75 156.89 492.83 157C492.9 157.09 492.99 157.24 493.25 157.26C493.67 157.23 493.79 156.91 493.88 156.73C493.97 156.52 494.03 156.32 494.07 156.12C494.16 155.71 494.2 155.31 494.23 154.9C494.34 153.27 494.28 151.6 494.16 149.9C494.12 149.04 493.91 148.18 494.06 147.4C494.13 147.02 494.29 146.63 494.55 146.47C494.68 146.39 494.82 146.38 494.98 146.42C495.06 146.44 495.14 146.48 495.22 146.52C495.29 146.58 495.27 146.55 495.33 146.67C495.66 147.39 495.84 148.32 496.02 149.18C496.2 150.07 496.35 150.97 496.49 151.88C496.63 152.79 496.76 153.72 496.87 154.64C496.96 155.57 497.09 156.54 497.33 157.48C497.45 157.95 497.58 158.42 497.78 158.89C497.88 159.12 497.99 159.36 498.19 159.6C498.26 159.7 498.5 159.89 498.79 159.82C499.07 159.73 499.15 159.5 499.2 159.37C499.36 158.79 499.31 158.32 499.31 157.81C499.29 157.31 499.25 156.82 499.21 156.33C499.14 155.49 499.06 154.65 499.03 153.83C499.02 153.42 499.02 153.01 499.06 152.63C499.08 152.44 499.12 152.25 499.18 152.11C499.21 152.04 499.25 151.99 499.28 151.96C499.3 151.94 499.31 151.96 499.32 151.93L499.45 151.89C500.11 151.62 500.33 152.54 500.51 153.28C500.66 154.06 500.76 154.86 500.92 155.65C501.18 157.23 501.52 158.79 501.7 160.29C501.77 161.04 501.83 161.81 501.61 162.44C501.37 163.16 501.14 163.88 500.91 164.59L500.89 164.65L500.91 164.72C502.13 170.1 503.82 174.91 505.38 179.18C506.96 183.45 508.55 187.13 509.94 190.15C511.33 193.17 512.58 195.49 513.45 197.08C513.89 197.83 514.23 198.43 514.49 198.87C514.73 199.27 514.86 199.48 514.88 199.47C514.89 199.47 514.79 199.24 514.57 198.82C514.33 198.37 514.01 197.76 513.61 196.99C512.8 195.38 511.6 193.04 510.25 190.01C508.9 186.98 507.36 183.29 505.81 179.02C504.28 174.75 502.62 169.93 501.44 164.61V164.74C501.66 164.04 501.9 163.34 502.13 162.62C502.4 161.8 502.32 161.01 502.25 160.23C502.07 158.67 501.74 157.15 501.48 155.56C501.33 154.78 501.23 153.97 501.07 153.16C500.98 152.75 500.89 152.34 500.66 151.92C500.55 151.72 500.38 151.49 500.11 151.36C499.83 151.24 499.55 151.27 499.32 151.33L499.15 151.38C499.07 151.41 498.98 151.45 498.92 151.51C498.79 151.62 498.72 151.75 498.67 151.87C498.56 152.11 498.53 152.33 498.5 152.55C498.45 152.99 498.45 153.42 498.47 153.84C498.5 154.69 498.58 155.53 498.65 156.37C498.69 156.86 498.73 157.34 498.75 157.82C498.77 158.29 498.78 158.8 498.68 159.16C498.66 159.26 498.61 159.25 498.66 159.3C498.66 159.3 498.66 159.36 498.66 159.34V159.3C498.66 159.3 498.69 159.26 498.67 159.25C498.67 159.25 498.64 159.23 498.61 159.19C498.5 159.06 498.39 158.86 498.3 158.65C498.12 158.23 497.99 157.78 497.88 157.32C497.65 156.4 497.52 155.49 497.43 154.55C497.32 153.61 497.19 152.68 497.04 151.76C496.9 150.84 496.74 149.93 496.56 149.04C496.35 148.14 496.22 147.27 495.8 146.37C495.77 146.28 495.6 146.08 495.49 146.02C495.38 145.95 495.25 145.9 495.12 145.86C494.85 145.79 494.52 145.82 494.27 145.98C493.77 146.31 493.62 146.83 493.53 147.28C493.45 147.75 493.46 148.21 493.51 148.65C493.56 149.08 493.6 149.5 493.63 149.92C493.76 151.6 493.82 153.26 493.72 154.85C493.69 155.24 493.65 155.64 493.58 156.01C493.54 156.2 493.49 156.37 493.43 156.53C493.4 156.61 493.36 156.68 493.32 156.72C493.28 156.8 493.25 156.7 493.26 156.84C493.31 156.74 493.26 156.79 493.22 156.71C493.18 156.66 493.14 156.57 493.1 156.5C493.03 156.34 492.97 156.16 492.91 155.99C492.8 155.64 492.71 155.27 492.63 154.9C492.04 151.96 491.76 149.15 491.5 146.62V146.65C491.52 146.14 491.49 145.65 491.34 145.16C491.26 144.92 491.15 144.68 490.95 144.49C490.75 144.3 490.47 144.21 490.21 144.22H490.27C489.87 144.15 489.57 144.4 489.41 144.64C489.24 144.89 489.16 145.16 489.1 145.42C488.99 145.94 488.99 146.44 488.97 146.92C488.93 147.88 488.93 148.79 488.95 149.63C488.98 151.34 489.37 152.75 489.5 153.91C489.67 155.07 489.8 155.97 489.86 156.58C489.92 156.87 489.69 157.05 489.57 157.1C489.43 157.16 489.35 157.17 489.35 157.18L489.32 157.2Z" fill="#A36957"/>
<path d="M424.2 208.23C424.2 208.23 421.43 208.1 418.41 208.89C413.25 210.25 404.33 215.65 403.96 222.33H410.43C410.43 222.33 406.8 230.05 407.87 229.33C410.63 227.48 416.14 221.88 416.14 221.88L424.2 208.22V208.23Z" fill="#B78876"/>
<path d="M512.52 92.0401C512.38 92.0501 511.79 86.7001 511.21 80.0801C510.63 73.4601 510.27 68.0901 510.42 68.0801C510.56 68.0701 511.15 73.4201 511.73 80.0401C512.31 86.6601 512.67 92.0301 512.52 92.0401Z" fill="#263238"/>
<path d="M540.93 68.4099C541.05 68.4899 536.67 74.8399 531.16 82.5899C525.65 90.3399 521.08 96.5499 520.96 96.4699C520.84 96.3899 525.22 90.0399 530.73 82.2899C536.24 74.5399 540.81 68.3299 540.92 68.4099H540.93Z" fill="#263238"/>
<path d="M552.73 97.1906C552.76 97.3306 547.65 98.5006 541.33 99.8006C535 101.101 529.85 102.041 529.82 101.901C529.79 101.761 534.9 100.591 541.22 99.2906C547.55 97.9906 552.7 97.0506 552.73 97.1906Z" fill="#263238"/>
<path d="M212.62 234.54L177.26 416.34L172.63 440.141L408.69 438.981C419.28 438.931 428.67 429.52 432.08 415.55L473.94 243.911C476.53 233.301 470.85 222.271 462.81 222.271L223.89 222.521C218.61 222.521 214 227.45 212.62 234.54Z" fill="#4272F6"/>
<g opacity="0.5">
<path d="M212.62 234.54L177.26 416.34L172.63 440.141L408.69 438.981C419.28 438.931 428.67 429.52 432.08 415.55L473.94 243.911C476.53 233.301 470.85 222.271 462.81 222.271L223.89 222.521C218.61 222.521 214 227.45 212.62 234.54Z" fill="black"/>
</g>
<path d="M386.05 404.03L361.06 202.62C360.04 194.37 353.46 188.21 345.7 188.24L290.89 188.42C286.83 188.43 282.94 190.16 280.06 193.22L254.04 220.88L101.61 221.68C92.3002 221.73 85.1402 230.54 86.3702 240.45L109.58 426.6C110.61 434.84 117.17 440.99 124.92 440.97L390.57 440.45C420.16 441.06 422.98 432.33 422.98 432.33C389.07 439.84 386.05 404.06 386.05 404.04V404.03Z" fill="#4272F6"/>
<g opacity="0.5">
<path d="M271.51 363.721L262.55 373.341L193.55 311.261L202.51 301.641L271.51 363.721Z" fill="white"/>
<path d="M258.79 299.511L268.7 308.421L206.26 375.471L196.36 366.571L258.79 299.511Z" fill="white"/>
</g>
<path d="M423.99 103.779C423.35 103.509 422.89 102.879 422.86 102.139L422.46 92.8594C422.43 92.2794 422.68 91.7094 423.13 91.3394C423.58 90.9694 424.18 90.8294 424.75 90.9594C426.24 91.3094 427.89 90.9894 429.26 90.0694C430.53 89.2194 431.38 87.9794 431.59 86.6494C431.81 85.3294 431.4 83.8594 430.47 82.6294C429.47 81.3094 428 80.4294 426.53 80.2594C423.52 79.9094 420.27 82.2194 419.43 85.2994C419.16 86.2894 418.14 86.8794 417.14 86.6094C416.13 86.3294 415.56 85.3094 415.83 84.3194C417.14 79.4794 422.14 75.9994 426.96 76.5494C429.46 76.8394 431.83 78.2294 433.45 80.3794C434.99 82.4194 435.66 84.9194 435.28 87.2494C434.9 89.5894 433.46 91.7494 431.33 93.1694C429.79 94.1994 428.03 94.7594 426.27 94.8194L426.58 101.979C426.62 103.009 425.83 103.879 424.8 103.919C424.51 103.929 424.24 103.879 423.99 103.769V103.779Z" fill="#4272F6"/>
<path d="M426.72 107.579C426.78 108.419 426.14 109.149 425.3 109.209C424.46 109.269 423.73 108.629 423.67 107.789C423.61 106.949 424.25 106.219 425.09 106.159C425.93 106.099 426.66 106.739 426.72 107.579Z" fill="#4272F6"/>
<path d="M391.85 90.6897C391.85 90.6897 391.89 90.4797 391.94 90.0797C391.99 89.6497 392.05 89.0497 392.14 88.2897C392.18 87.4997 392.39 86.5396 392.62 85.4196C392.75 84.8596 392.82 84.2397 393.03 83.6097C393.23 82.9797 393.43 82.2996 393.65 81.5896C394.62 78.7796 396.11 75.4096 398.62 72.0596C401.11 68.7196 404.62 65.4097 409.12 62.9097C411.34 61.5897 413.87 60.6696 416.53 59.8496C419.23 59.2096 422.09 58.6596 425.08 58.7296C426.57 58.6496 428.08 58.8697 429.62 58.9997C430.39 59.0697 431.14 59.2797 431.91 59.4097C432.68 59.5497 433.46 59.6997 434.21 59.9697C437.3 60.7597 440.3 62.2196 443.15 64.0196C448.89 67.6296 453.72 73.4997 456.37 80.6197C457.7 84.1797 458.33 88.0796 458.33 92.0296C458.41 95.9796 457.64 99.9896 456.24 103.77L455.79 104.91L455.73 105.06L455.79 105.2C458.3 110.98 460.76 116.64 463.14 122.13L463.56 121.65C458.4 119.67 453.39 117.74 448.58 115.9L448.39 115.83L448.24 115.97C444.08 120 439.12 122.72 434.1 124.13C429.06 125.55 423.98 125.62 419.37 124.8C414.74 123.98 410.58 122.21 407.1 119.94C403.62 117.67 400.82 114.9 398.67 112.09C396.53 109.25 395.12 106.33 394.06 103.73C393.12 101.07 392.55 98.7096 392.27 96.7496C392.15 95.7696 392.05 94.9096 391.96 94.1497C391.94 93.3997 391.92 92.7696 391.91 92.2396C391.89 91.7496 391.88 91.3596 391.87 91.0696C391.86 90.8097 391.85 90.6696 391.84 90.6696C391.84 90.6696 391.82 90.7996 391.82 91.0696C391.82 91.3596 391.82 91.7496 391.8 92.2396C391.8 92.7696 391.8 93.4097 391.8 94.1597C391.88 94.9197 391.96 95.7996 392.06 96.7796C392.31 98.7496 392.85 101.14 393.77 103.84C394.81 106.48 396.21 109.44 398.35 112.34C400.51 115.2 403.32 118.03 406.84 120.36C410.35 122.69 414.57 124.51 419.27 125.36C423.96 126.21 429.12 126.16 434.25 124.73C439.37 123.3 444.43 120.55 448.68 116.45L448.35 116.52C453.15 118.37 458.16 120.3 463.32 122.3L464.07 122.59L463.74 121.82C461.36 116.33 458.9 110.66 456.4 104.88V105.17L456.86 104C458.3 100.14 459.08 96.0296 459 91.9996C459 87.9696 458.35 83.9796 456.99 80.3396C454.28 73.0696 449.33 67.0897 443.48 63.4297C440.56 61.5997 437.51 60.1297 434.36 59.3297C433.59 59.0697 432.8 58.9197 432.02 58.7697C431.24 58.6397 430.47 58.4297 429.69 58.3597C428.13 58.2297 426.6 58.0197 425.08 58.1097C422.04 58.0497 419.14 58.6196 416.4 59.2796C413.7 60.1196 411.14 61.0696 408.9 62.4196C404.35 64.9896 400.82 68.3596 398.32 71.7696C395.81 75.1796 394.33 78.6096 393.4 81.4496C393.19 82.1696 392.99 82.8497 392.8 83.4997C392.6 84.1397 392.54 84.7697 392.42 85.3297C392.2 86.4697 392.02 87.4297 392 88.2297C391.94 88.9997 391.9 89.5896 391.87 90.0296C391.84 90.4296 391.84 90.6396 391.85 90.6396V90.6897Z" fill="#263238"/>
</g>
<defs>
<clipPath id="clip0_385_2010">
<rect width="601.55" height="443.06" fill="white"/>
</clipPath>
</defs>
</svg>
