<svg xmlns="http://www.w3.org/2000/svg" width="9.143" height="12" viewBox="0 0 9.143 12">
  <path id="Icon_ionic-md-lock" data-name="Icon ionic-md-lock" d="M14.75,7.234h-.571V6.092a2.857,2.857,0,1,0-5.714,0V7.234H7.893A1.146,1.146,0,0,0,6.75,8.377v5.714a1.146,1.146,0,0,0,1.143,1.143H14.75a1.146,1.146,0,0,0,1.143-1.143V8.377A1.146,1.146,0,0,0,14.75,7.234Zm-3.429,5.2a1.143,1.143,0,1,1,1.143-1.143A1.146,1.146,0,0,1,11.321,12.434Zm1.771-5.2H9.55V6.092a1.771,1.771,0,0,1,3.543,0Z" transform="translate(-6.75 -3.234)" fill="#171b4a"/>
</svg>
