<?xml version="1.0" encoding="UTF-8"?>
<!DOCTYPE svg PUBLIC "-//W3C//DTD SVG 1.1//EN" "http://www.w3.org/Graphics/SVG/1.1/DTD/svg11.dtd">
<!-- Creator: CorelDRAW 2021 (64-Bit) -->
<svg xmlns="http://www.w3.org/2000/svg" xml:space="preserve" width="228.6mm" height="228.6mm" version="1.1" style="shape-rendering:geometricPrecision; text-rendering:geometricPrecision; image-rendering:optimizeQuality; fill-rule:evenodd; clip-rule:evenodd"
viewBox="0 0 22860 22860"
 xmlns:xlink="http://www.w3.org/1999/xlink"
 xmlns:xodm="http://www.corel.com/coreldraw/odm/2003">
 <defs>
  <style type="text/css">
   <![CDATA[
    .fil2 {fill:#94C1FF}
    .fil1 {fill:#2E61E6}
    .fil0 {fill:#1D4289;fill-rule:nonzero}
   ]]>
  </style>
 </defs>
 <g id="Layer_x0020_1">
  <metadata id="CorelCorpID_0Corel-Layer"/>
  <g id="_3000129540256">
   <polygon class="fil0" points="11364.04,11914.72 11454.36,11914.72 11454.36,11031.37 11790.2,11031.37 11790.2,10945.29 11028.2,10945.29 11028.2,11031.37 11364.04,11031.37 "/>
   <path id="_1" class="fil0" d="M12713.07 11251.5c0,-179.21 -150.99,-306.21 -349.96,-306.21l-397.93 0 0 969.43 90.31 0 0 -358.42 280.81 0 252.59 358.42 104.42 0 -256.82 -364.07c162.28,-26.81 276.58,-142.52 276.58,-299.15zm-657.58 -220.13l292.1 0c162.28,0 275.16,84.66 275.16,220.13 0,134.05 -112.88,218.72 -275.16,218.72l-292.1 0 0 -438.85z"/>
   <path id="_2" class="fil0" d="M13665.57 11914.72l98.78 0 -427.57 -969.43 -98.78 0 -427.56 969.43 98.77 0 100.19 -228.6 555.98 0 100.19 228.6zm-616.66 -316.09l238.48 -541.86 238.48 541.86 -476.96 0z"/>
   <polygon id="_3" class="fil0" points="14584.2,10945.29 14206.02,11803.24 13827.84,10945.29 13729.07,10945.29 14156.63,11914.72 14255.41,11914.72 14682.98,10945.29 "/>
   <polygon id="_4" class="fil0" points="15515.53,11031.37 15515.53,10945.29 14839.61,10945.29 14839.61,11914.72 15515.53,11914.72 15515.53,11828.64 14931.33,11828.64 14931.33,11464.58 15461.91,11464.58 15461.91,11377.09 14931.33,11377.09 14931.33,11031.37 "/>
   <polygon id="_5" class="fil0" points="15779.41,11828.64 15779.41,10945.29 15689.1,10945.29 15689.1,11914.72 16318.45,11914.72 16318.45,11828.64 "/>
   <g>
    <path class="fil1" d="M6976 12008.43c415.44,-80.06 616.18,40.71 651.96,140.17 44.19,122.85 -371.78,377.47 -784.87,125.32 -145.79,-88.99 -26.99,-234.67 132.91,-265.49z"/>
    <path class="fil2" d="M8917.09 11109.09l-704.91 -4.51c119.48,-343.59 597.8,-307.98 704.91,4.51z"/>
    <path class="fil2" d="M9958.59 10866.87c241.45,0 437.18,198.49 437.18,443.37 0,244.86 -195.73,443.36 -437.18,443.36 -241.45,0 -437.18,-198.5 -437.18,-443.36 0,-244.88 195.73,-443.37 437.18,-443.37z"/>
    <path class="fil2" d="M7228.86 10863.47c179.19,0 324.44,112.55 324.44,251.37 0,138.82 -145.25,251.36 -324.44,251.36 -179.18,0 -324.43,-112.54 -324.43,-251.36 0,-138.82 145.25,-251.37 324.43,-251.37z"/>
    <path class="fil1" d="M6609.37 11953.99c-44.18,-167.25 -67.82,-342.86 -67.82,-523.99 0,-233.49 39.18,-457.8 111.21,-666.82l59.52 93.73c-239.16,489.44 260.08,933.09 823.8,758.98l-100.77 82.67c-353.56,-55.27 -616.82,-5.3 -804.7,132.46 -9.57,42.89 -16.4,83.72 -21.24,122.97z"/>
    <path class="fil1" d="M10629.09 11580.54c-77.08,1059.97 -961.37,1896 -2041.01,1896 -688.42,0 -1297.45,-339.91 -1668.41,-861.07 400.8,181.58 1035.82,-56.52 1021.46,-473.79 5.11,-122.88 -41.47,-233.14 -148.4,-328.71 43.01,-95.98 48.12,-206.64 -21.76,-308.61 1.35,-7.97 -38.67,-26.72 -26.17,-39.81 68.62,-71.87 122.87,-261.89 123.58,-266.72 0.04,-0.27 0.41,426.59 178.22,616.88 359.6,384.81 964.47,232.89 1153.24,-187.99l-307.64 -115.02c-142.04,358.52 -640.76,307.4 -720.16,-125.21l1053.17 10.01c229,930.24 1170.63,756.84 1403.88,184.04z"/>
    <path class="fil1" d="M8588.08 9383.47c936.2,0 1725.57,628.64 1969.04,1486.82 -18.06,-32.26 -38.18,-64.78 -60.62,-97.54 -253.33,-313.73 -1024.36,-355.75 -1241.18,284.19 -233.48,-669.66 -1144.97,-623.21 -1314.86,-72.48l-65.29 188.4c-40.29,-535.08 -477.38,-741.13 -953.12,-521.64l-62.52 -41.87c-47.93,-50.61 -84.08,-61.85 -119.8,-58.84 328.96,-690.1 1032.93,-1167.04 1848.35,-1167.04z"/>
   </g>
  </g>
 </g>
</svg>
