<svg width="61" height="55" viewBox="0 0 61 55" fill="none" xmlns="http://www.w3.org/2000/svg">
<g clip-path="url(#clip0_256_475)">
<path d="M60.4644 21.0331C60.4425 21.0331 60.4212 21.0264 60.4033 21.0139L30.8066 0.310871C30.7165 0.248161 30.6095 0.214648 30.4999 0.214835C30.3903 0.215023 30.2834 0.248902 30.1936 0.31192L0.810105 21.0136C0.786864 21.03 0.7581 21.0364 0.730139 21.0315C0.702178 21.0266 0.677311 21.0107 0.661009 20.9874C0.644708 20.964 0.638306 20.9351 0.643213 20.907C0.648121 20.879 0.663935 20.854 0.687176 20.8376L30.0707 0.135884C30.1965 0.0476724 30.3462 0.000254281 30.4996 1.01982e-06C30.653 -0.000252241 30.8028 0.0466711 30.9289 0.134467L60.5256 20.8374C60.5443 20.8505 60.5583 20.8692 60.5657 20.8909C60.5731 20.9125 60.5733 20.936 60.5665 20.9578C60.5597 20.9797 60.5461 20.9987 60.5277 21.0123C60.5093 21.0258 60.4871 21.0331 60.4644 21.0331Z" fill="#3F3D56"/>
<path d="M2.48926 21.7668L30.5291 0.894043L58.7818 23.252L31.9739 39.2143L17.4195 35.8821L2.48926 21.7668Z" fill="#E6E6E6"/>
<path d="M18.6488 49.0735H4.79644C4.71139 49.0736 4.62714 49.0569 4.54853 49.0243C4.46991 48.9916 4.39847 48.9438 4.33829 48.8834C4.2781 48.823 4.23036 48.7513 4.19778 48.6724C4.16521 48.5935 4.14844 48.5089 4.14844 48.4235C4.14844 48.338 4.16521 48.2534 4.19778 48.1745C4.23036 48.0956 4.2781 48.0239 4.33829 47.9635C4.39847 47.9032 4.46991 47.8553 4.54853 47.8227C4.62714 47.7901 4.71139 47.7733 4.79644 47.7734H18.6488C18.7339 47.7733 18.8181 47.7901 18.8967 47.8227C18.9754 47.8553 19.0468 47.9032 19.107 47.9635C19.1672 48.0239 19.2149 48.0956 19.2475 48.1745C19.2801 48.2534 19.2968 48.338 19.2968 48.4235C19.2968 48.5089 19.2801 48.5935 19.2475 48.6724C19.2149 48.7513 19.1672 48.823 19.107 48.8834C19.0468 48.9438 18.9754 48.9916 18.8967 49.0243C18.8181 49.0569 18.7339 49.0736 18.6488 49.0735Z" fill="#4272F6"/>
<path d="M9.76637 46.2791H4.79644C4.71139 46.2792 4.62714 46.2624 4.54853 46.2298C4.46991 46.1972 4.39847 46.1493 4.33829 46.089C4.2781 46.0286 4.23036 45.9569 4.19778 45.878C4.16521 45.7991 4.14844 45.7145 4.14844 45.629C4.14844 45.5436 4.16521 45.459 4.19778 45.3801C4.23036 45.3012 4.2781 45.2295 4.33829 45.1691C4.39847 45.1087 4.46991 45.0609 4.54853 45.0282C4.62714 44.9956 4.71139 44.9789 4.79644 44.979H9.76637C9.85143 44.9789 9.93568 44.9956 10.0143 45.0282C10.0929 45.0609 10.1643 45.1087 10.2245 45.1691C10.2847 45.2295 10.3325 45.3012 10.365 45.3801C10.3976 45.459 10.4144 45.5436 10.4144 45.629C10.4144 45.7145 10.3976 45.7991 10.365 45.878C10.3325 45.9569 10.2847 46.0286 10.2245 46.089C10.1643 46.1493 10.0929 46.1972 10.0143 46.2298C9.93568 46.2624 9.85143 46.2792 9.76637 46.2791Z" fill="#4272F6"/>
<path d="M30.9233 33.3928C30.8181 33.3929 30.7138 33.3724 30.6163 33.3324L13.3232 26.1253V3.56591C13.3235 3.36642 13.4025 3.17517 13.5429 3.03412C13.6833 2.89306 13.8738 2.81371 14.0724 2.81348H47.2478C47.4464 2.81371 47.6368 2.89306 47.7773 3.03412C47.9177 3.17517 47.9967 3.36642 47.9969 3.56591V26.141L47.9644 26.155L31.2397 33.3289C31.1395 33.3711 31.032 33.3929 30.9233 33.3928Z" fill="white"/>
<path d="M30.9241 33.4465C30.8118 33.4466 30.7006 33.4248 30.5967 33.3822L13.2705 26.1612V3.56594C13.2707 3.3522 13.3554 3.14729 13.5059 2.99616C13.6563 2.84502 13.8603 2.76001 14.0731 2.75977H47.2486C47.4614 2.76001 47.6654 2.84502 47.8159 2.99616C47.9663 3.14729 48.051 3.3522 48.0512 3.56594V26.1766L31.2615 33.3783C31.1547 33.4234 31.04 33.4466 30.9241 33.4465ZM13.4845 26.0176L30.6783 33.1834C30.8387 33.2488 31.0183 33.2477 31.1779 33.1804L47.8372 26.0346V3.56594C47.837 3.4092 47.7749 3.25894 47.6646 3.14811C47.5542 3.03728 47.4046 2.97493 47.2486 2.97475H14.0731C13.9171 2.97493 13.7675 3.03728 13.6571 3.14811C13.5468 3.25894 13.4847 3.4092 13.4845 3.56594L13.4845 26.0176Z" fill="#3F3D56"/>
<path d="M60.2509 20.8184H60.2295L47.9439 26.0875L31.1346 33.2969C31.069 33.3246 30.9985 33.3391 30.9272 33.3395C30.856 33.3399 30.7853 33.3261 30.7194 33.299L13.3772 26.0725L0.789777 20.827L0.770547 20.8184H0.749123C0.550511 20.8186 0.360096 20.8979 0.219656 21.039C0.0792157 21.18 0.000220376 21.3713 0 21.5708V54.2478C0.000220659 54.4473 0.0792158 54.6385 0.219656 54.7796C0.360096 54.9207 0.550511 55 0.749123 55.0002H60.2509C60.4495 55 60.6399 54.9207 60.7803 54.7796C60.9208 54.6385 60.9998 54.4473 61 54.2478V21.5708C60.9998 21.3713 60.9208 21.18 60.7803 21.039C60.6399 20.8979 60.4495 20.8186 60.2509 20.8184ZM60.786 54.2478C60.7859 54.3903 60.7295 54.527 60.6292 54.6278C60.5288 54.7285 60.3928 54.7852 60.2509 54.7852H0.749123C0.607226 54.7852 0.471158 54.7285 0.370822 54.6278C0.270486 54.527 0.214092 54.3903 0.214035 54.2478V21.5708C0.214229 21.4318 0.267904 21.2983 0.363836 21.1981C0.459769 21.098 0.590533 21.0389 0.728796 21.0333L13.3772 26.3047L30.637 33.4979C30.8238 33.5743 31.0332 33.5731 31.2192 33.4947L47.9439 26.3208L60.2723 21.0333C60.4103 21.0393 60.5407 21.0985 60.6364 21.1986C60.7321 21.2987 60.7856 21.432 60.786 21.5708V54.2478Z" fill="#3F3D56"/>
<path d="M30.7506 26.996C30.1122 26.9972 29.4907 26.7898 28.9799 26.4052L28.9483 26.3813L22.2799 21.2532C21.9711 21.0156 21.7119 20.7191 21.5171 20.3809C21.3223 20.0426 21.1958 19.6691 21.1448 19.2817C21.0937 18.8943 21.1191 18.5006 21.2195 18.1231C21.32 17.7455 21.4935 17.3916 21.7301 17.0814C21.9667 16.7712 22.2618 16.5108 22.5986 16.3152C22.9354 16.1196 23.3073 15.9925 23.693 15.9412C24.0787 15.8899 24.4706 15.9155 24.8465 16.0163C25.2224 16.1172 25.5748 16.2915 25.8836 16.5291L30.2029 19.8557L40.41 6.48536C40.6467 6.17525 40.9419 5.91501 41.2788 5.7195C41.6157 5.52399 41.9876 5.39704 42.3733 5.3459C42.759 5.29476 43.1509 5.32043 43.5268 5.42145C43.9026 5.52246 44.2549 5.69684 44.5637 5.93463L44.5002 6.02118L44.5653 5.93589C45.1881 6.41665 45.5956 7.1259 45.6984 7.90805C45.8012 8.69019 45.5909 9.48135 45.1136 10.108L33.1076 25.8347C32.8299 26.1971 32.4729 26.4904 32.0641 26.6918C31.6554 26.8932 31.2059 26.9973 30.7506 26.996Z" fill="#4272F6"/>
</g>
<defs>
<clipPath id="clip0_256_475">
<rect width="61" height="55" fill="white"/>
</clipPath>
</defs>
</svg>
