<svg width="287" height="89" viewBox="0 0 287 89" fill="none" xmlns="http://www.w3.org/2000/svg">
<path d="M35.7 70.6C9.5 70.6 2.83122e-07 53.6 2.83122e-07 35.8C2.83122e-07 18.3 9.5 0.799996 35.7 0.799996C62.1 0.799996 71.5 18.4 71.5 35.8C71.5 53.5 62.1 70.6 35.7 70.6ZM18.4 35.8C18.4 48.8 22 56.3 35.7 56.3C49.6 56.3 53.1 48.8 53.1 35.8C53.1 22.6 49.6 15.2 35.7 15.2C22 15.2 18.4 22.6 18.4 35.8ZM108.123 70.6C86.9227 70.6 79.5227 57.5 79.5227 44C79.5227 30.6 86.9227 17.4 108.123 17.4C129.323 17.4 136.823 30.6 136.823 44C136.823 57.4 129.323 70.6 108.123 70.6ZM96.7227 44C96.7227 54 99.9227 57.2 108.123 57.2C116.323 57.2 119.523 54 119.523 44C119.523 34 116.323 30.8 108.123 30.8C99.9227 30.8 96.7227 34 96.7227 44ZM180.716 17.4C197.116 17.4 203.616 29.7 203.616 44.1C203.616 58 197.116 70.6 180.716 70.6C172.216 70.6 166.516 67.4 163.116 62V89H145.916V19H163.116V25.8C166.516 20.5 172.216 17.4 180.716 17.4ZM174.916 57.2C183.416 57.2 186.416 53.3 186.416 44C186.416 34.7 183.416 30.8 174.916 30.8C166.116 30.8 163.116 35.1 163.116 44C163.116 52.9 166.116 57.2 174.916 57.2ZM210.059 52.9H225.659C226.059 57 229.459 60.3 235.859 60.3C241.459 60.3 243.659 58.5 243.659 55.6C243.659 53.1 242.759 51 236.959 50.3L226.359 49.1C216.659 48 211.459 42.8 211.459 34.1C211.459 22.2 221.659 17.4 235.059 17.4C248.859 17.4 258.459 22.1 259.459 33.8H243.859C243.359 29.9 240.659 27.6 235.159 27.6C229.359 27.6 227.159 29.7 227.159 32.5C227.159 34.6 228.359 36.5 233.059 37L243.359 38C255.159 39.2 260.059 44 260.059 53.6C260.059 63.1 254.159 70.6 235.559 70.6C217.259 70.6 210.459 62.1 210.059 52.9ZM283.445 46.5H272.045L269.045 2.5H286.445L283.445 46.5ZM285.845 69H269.645V54H285.845V69Z" fill="#383838"/>
</svg>
