<svg width="117" height="117" viewBox="0 0 117 117" fill="none" xmlns="http://www.w3.org/2000/svg">
<path d="M58.4536 116.779C90.7366 116.779 116.907 90.6369 116.907 58.3893C116.907 26.1418 90.7366 0 58.4536 0C26.1706 0 0 26.1418 0 58.3893C0 90.6369 26.1706 116.779 58.4536 116.779Z" fill="url(#paint0_linear_267_248)"/>
<path d="M58.373 78.7608C62.9848 78.7608 66.7235 75.0263 66.7235 70.4195C66.7235 65.8127 62.9848 62.0781 58.373 62.0781C53.7611 62.0781 50.0225 65.8127 50.0225 70.4195C50.0225 75.0263 53.7611 78.7608 58.373 78.7608Z" fill="white"/>
<path d="M58.3746 74.269C60.5032 74.269 62.2287 72.5454 62.2287 70.4192C62.2287 68.293 60.5032 66.5693 58.3746 66.5693C56.246 66.5693 54.5205 68.293 54.5205 70.4192C54.5205 72.5454 56.246 74.269 58.3746 74.269Z" fill="url(#paint1_linear_267_248)"/>
<path d="M73.8746 88.9872H43.0334C39.9796 88.9838 37.0518 87.7706 34.8923 85.6136C32.7329 83.4567 31.5182 80.5321 31.5146 77.4817V63.3567C31.5181 60.3061 32.7328 57.3815 34.8922 55.2245C37.0517 53.0674 39.9795 51.8541 43.0334 51.8506H73.8746C76.9285 51.8541 79.8562 53.0675 82.0156 55.2246C84.175 57.3816 85.3896 60.3062 85.3931 63.3567V77.4817C85.3896 80.5321 84.1749 83.4566 82.0155 85.6135C79.8562 87.7705 76.9284 88.9838 73.8746 88.9872ZM43.0334 53.0553C40.2993 53.0584 37.678 54.1447 35.7447 56.0759C33.8113 58.0071 32.7238 60.6256 32.7207 63.3567V77.4817C32.7238 80.2127 33.8114 82.831 35.7447 84.7621C37.678 86.6932 40.2993 87.7795 43.0334 87.7824H73.8746C76.6086 87.7794 79.2299 86.6932 81.1632 84.7621C83.0965 82.831 84.1839 80.2127 84.187 77.4817V63.3567C84.184 60.6256 83.0965 58.0072 81.1632 56.076C79.2299 54.1448 76.6087 53.0584 73.8746 53.0553L43.0334 53.0553Z" fill="white"/>
<path d="M41.2082 81.3201H68.5829C70.0037 81.3202 71.4107 81.0406 72.7234 80.4974C74.0362 79.9543 75.2289 79.1582 76.2337 78.1546C77.2384 77.151 78.0354 75.9595 78.5791 74.6482C79.1229 73.3369 79.4027 71.9315 79.4027 70.5122V58.6917C79.4006 57.3808 79.1587 56.0814 78.689 54.8574C80.0245 55.8619 81.1081 57.1626 81.8544 58.657C82.6006 60.1513 82.9891 61.7984 82.9891 63.4683V75.2888C82.9892 76.7081 82.7093 78.1136 82.1655 79.4249C81.6218 80.7361 80.8248 81.9276 79.8201 82.9312C78.8154 83.9348 77.6226 84.7309 76.3099 85.2741C74.9972 85.8172 73.5902 86.0968 72.1693 86.0968H44.7946C42.6007 86.0956 40.4591 85.4279 38.6541 84.1823C36.8491 82.9367 35.466 81.1722 34.6885 79.123C36.5623 80.5486 38.8527 81.3205 41.2082 81.3201Z" fill="white"/>
<path d="M58.9289 26.7295C53.2117 26.7295 48.1862 29.3149 45.3408 33.1957C48.3827 30.9843 52.0551 29.8073 55.8171 29.8378C64.6705 29.8378 71.8733 36.0328 71.8733 43.6473V49.9768H74.9851V40.539C74.9851 32.9244 67.7823 26.7295 58.9289 26.7295Z" fill="white"/>
<path d="M77.1224 53.2161H39.7842V42.2423C39.7842 33.3886 48.1591 26.1855 58.4533 26.1855C68.7475 26.1855 77.1224 33.3886 77.1224 42.2423V53.2161ZM40.9902 52.0113H75.9164V42.2423C75.9164 34.0528 68.0826 27.3903 58.4533 27.3903C48.824 27.3903 40.9902 34.0528 40.9902 42.2423V52.0113Z" fill="white"/>
<path d="M68.0165 49.0275H48.8916C48.0312 49.0265 47.2063 48.6846 46.598 48.0769C45.9896 47.4691 45.6474 46.6451 45.6465 45.7856V41.4185C45.6465 35.3296 51.392 30.376 58.454 30.376C65.5161 30.376 71.2616 35.3296 71.2616 41.4185V45.7856C71.2607 46.6451 70.9185 47.4691 70.3101 48.0769C69.7018 48.6846 68.8769 49.0265 68.0165 49.0275ZM58.454 31.5807C52.0569 31.5807 46.8525 35.9937 46.8525 41.4185V45.7856C46.8531 46.3257 47.0681 46.8435 47.4503 47.2254C47.8326 47.6073 48.3509 47.8221 48.8916 47.8227H68.0165C68.5571 47.8221 69.0755 47.6073 69.4577 47.2254C69.84 46.8435 70.055 46.3257 70.0555 45.7856V41.4185C70.0555 35.9937 64.8512 31.5807 58.454 31.5807Z" fill="white"/>
<defs>
<linearGradient id="paint0_linear_267_248" x1="58.4536" y1="0" x2="58.4536" y2="116.779" gradientUnits="userSpaceOnUse">
<stop stop-color="#4272F6"/>
<stop offset="1" stop-color="#AED3FF"/>
</linearGradient>
<linearGradient id="paint1_linear_267_248" x1="58.3746" y1="66.5693" x2="58.3746" y2="74.269" gradientUnits="userSpaceOnUse">
<stop stop-color="#4272F6"/>
<stop offset="1" stop-color="#AED3FF"/>
</linearGradient>
</defs>
</svg>
