<svg xmlns="http://www.w3.org/2000/svg" width="18.667" height="12" viewBox="0 0 18.667 12">
  <path id="Icon_ionic-md-people" data-name="Icon ionic-md-people" d="M14.977,12.875a2.5,2.5,0,1,0-2.545-2.5A2.531,2.531,0,0,0,14.977,12.875Zm-6.788,0a2.5,2.5,0,1,0-2.546-2.5A2.531,2.531,0,0,0,8.189,12.875Zm0,1.833c-1.994,0-5.939.958-5.939,2.917v2.25h12v-2.25C14.25,15.667,10.183,14.708,8.189,14.708Zm6.788.458a4.528,4.528,0,0,0-.727.042,2.484,2.484,0,0,1,1.333,2.417v2.25h5.333v-2.25C20.917,15.667,16.971,15.167,14.977,15.167Z" transform="translate(-2.25 -7.875)" fill="#171b4a"/>
</svg>
