<?xml version="1.0" standalone="no"?>
<!DOCTYPE svg PUBLIC "-//W3C//DTD SVG 20010904//EN"
 "http://www.w3.org/TR/2001/REC-SVG-20010904/DTD/svg10.dtd">
<svg version="1.0" xmlns="http://www.w3.org/2000/svg"
 width="512.000000pt" height="512.000000pt" viewBox="0 0 512.000000 512.000000"
 preserveAspectRatio="xMidYMid meet">

<g transform="translate(0.000000,512.000000) scale(0.100000,-0.100000)"
fill="#000000" stroke="none">
<path d="M373 4384 c-33 -17 -56 -44 -65 -80 -3 -12 3 -259 13 -549 10 -291
17 -530 16 -531 -1 -2 -46 5 -100 14 -95 16 -99 16 -135 -3 -49 -27 -77 -79
-68 -128 14 -76 -8 -67 935 -382 l873 -291 -296 -118 c-320 -127 -336 -137
-336 -205 0 -46 21 -77 63 -90 17 -5 118 -24 222 -41 l190 -31 723 121 724
120 706 -116 c705 -117 708 -117 882 -118 157 -1 181 1 234 21 75 28 121 64
146 113 41 80 12 184 -78 281 -67 73 -144 129 -283 207 -57 32 -143 85 -191
119 -63 43 -113 69 -180 91 -156 51 -161 52 -2203 387 -517 85 -951 158 -965
162 -20 7 -63 90 -260 497 -161 334 -244 496 -261 509 -16 11 -69 26 -140 38
-136 23 -126 22 -166 3z"/>
<path d="M135 1166 c-60 -28 -87 -56 -114 -116 -50 -110 -1 -242 113 -303 l41
-22 2340 -3 c1614 -1 2356 1 2391 8 137 29 223 187 170 314 -20 48 -75 107
-121 127 -38 18 -139 19 -2405 19 l-2365 0 -50 -24z"/>
</g>
</svg>
