<svg xmlns="http://www.w3.org/2000/svg" width="24.979" height="18.734" viewBox="0 0 24.979 18.734">
  <path id="Icon_awesome-plane-departure" data-name="Icon awesome-plane-departure" d="M.625,18.486h23.73a.624.624,0,0,1,.624.624v1.249a.624.624,0,0,1-.624.624H.625A.624.624,0,0,1,0,20.359V19.11A.624.624,0,0,1,.625,18.486Zm21.21-4.166a1.287,1.287,0,0,1-.95.418l-5.095-.007a2.561,2.561,0,0,1-1.157-.278L3.278,8.691A6.635,6.635,0,0,1,.662,6.415C-.053,5.3-.13,4.5.152,3.931s.966-.986,2.273-1.071a6.556,6.556,0,0,1,3.367.76L9.638,5.571l8.536-3.2a.7.7,0,0,1,.7-.043l2.566,1.3a.713.713,0,0,1,.2,1.113l-6.1,3.829,4.028,2.044L22.4,9.19a.7.7,0,0,1,.627,0l1.566.8a.713.713,0,0,1,.217,1.1Z" transform="translate(0 -2.249)" fill="#171b4a"/>
</svg>
