<svg width="71" height="36" viewBox="0 0 71 36" fill="none" xmlns="http://www.w3.org/2000/svg">
<mask id="path-1-outside-1_306_537" maskUnits="userSpaceOnUse" x="-1" y="0" width="73" height="37" fill="black">
<rect fill="white" x="-1" width="73" height="37"/>
<path d="M15.3 35.85C4.9 35.85 0.35 28.4 0.35 18.35C0.35 8.45 4.9 0.849999 15.3 0.849999C25.65 0.849999 30.25 8.5 30.25 18.35C30.25 28.35 25.65 35.85 15.3 35.85ZM4.7 18.35C4.7 27.7 7.95 32.4 15.3 32.4C22.6 32.4 25.9 27.7 25.9 18.35C25.9 9 22.6 4.3 15.3 4.3C7.95 4.3 4.7 9 4.7 18.35ZM39.2438 35H35.0938V34.4L66.0438 4.75H50.7938V15.05H36.9438V1.75H68.1938C69.6938 1.75 70.6438 2.35 70.6438 3.75C70.6438 4.5 70.3438 5.3 69.1938 6.4L39.2438 35ZM40.1938 4.75V12.05H47.6438V4.75H40.1938ZM70.1938 35H56.3438V21.75H70.1938V35ZM59.5938 24.65V32H66.9938V24.65H59.5938Z"/>
</mask>
<path d="M15.3 35.85C4.9 35.85 0.35 28.4 0.35 18.35C0.35 8.45 4.9 0.849999 15.3 0.849999C25.65 0.849999 30.25 8.5 30.25 18.35C30.25 28.35 25.65 35.85 15.3 35.85ZM4.7 18.35C4.7 27.7 7.95 32.4 15.3 32.4C22.6 32.4 25.9 27.7 25.9 18.35C25.9 9 22.6 4.3 15.3 4.3C7.95 4.3 4.7 9 4.7 18.35ZM39.2438 35H35.0938V34.4L66.0438 4.75H50.7938V15.05H36.9438V1.75H68.1938C69.6938 1.75 70.6438 2.35 70.6438 3.75C70.6438 4.5 70.3438 5.3 69.1938 6.4L39.2438 35ZM40.1938 4.75V12.05H47.6438V4.75H40.1938ZM70.1938 35H56.3438V21.75H70.1938V35ZM59.5938 24.65V32H66.9938V24.65H59.5938Z" fill="#383838"/>
<path d="M15.3 35.35C10.2321 35.35 6.64907 33.5422 4.31895 30.5609C1.97382 27.5603 0.85 23.3091 0.85 18.35H-0.15C-0.15 23.4409 1.00118 27.9397 3.53105 31.1766C6.07593 34.4328 9.96785 36.35 15.3 36.35V35.35ZM0.85 18.35C0.85 13.4673 1.97321 9.21479 4.31985 6.19425C6.65162 3.19284 10.2355 1.35 15.3 1.35V0.349999C9.96447 0.349999 6.07338 2.30716 3.53015 5.58075C1.00179 8.83521 -0.15 13.3327 -0.15 18.35H0.85ZM15.3 1.35C20.3377 1.35 23.9225 3.20408 26.2615 6.21311C28.615 9.24076 29.75 13.4939 29.75 18.35H30.75C30.75 13.3561 29.585 8.85924 27.051 5.59939C24.5025 2.32091 20.6123 0.349999 15.3 0.349999V1.35ZM29.75 18.35C29.75 23.2825 28.6144 27.5343 26.2624 30.542C23.925 33.5309 20.3411 35.35 15.3 35.35V36.35C20.6089 36.35 24.5 34.4191 27.0501 31.158C29.5856 27.9157 30.75 23.4175 30.75 18.35H29.75ZM4.2 18.35C4.2 23.066 5.01641 26.7074 6.84157 29.1783C8.6898 31.6804 11.5089 32.9 15.3 32.9V31.9C11.7411 31.9 9.2602 30.7696 7.64593 28.5842C6.00859 26.3676 5.2 22.984 5.2 18.35H4.2ZM15.3 32.9C19.0671 32.9 21.8852 31.6799 23.7392 29.179C25.5706 26.7085 26.4 23.0673 26.4 18.35H25.4C25.4 22.9827 24.5794 26.3664 22.9358 28.5835C21.3148 30.7701 18.8329 31.9 15.3 31.9V32.9ZM26.4 18.35C26.4 13.6327 25.5706 9.99145 23.7392 7.52098C21.8852 5.02013 19.0671 3.8 15.3 3.8V4.8C18.8329 4.8 21.3148 5.92986 22.9358 8.11652C24.5794 10.3335 25.4 13.7173 25.4 18.35H26.4ZM15.3 3.8C11.5089 3.8 8.6898 5.01956 6.84157 7.52167C5.01641 9.99256 4.2 13.634 4.2 18.35H5.2C5.2 13.716 6.00859 10.3324 7.64593 8.11582C9.2602 5.93044 11.7411 4.8 15.3 4.8V3.8ZM39.2438 35V35.5H39.4441L39.5891 35.3616L39.2438 35ZM35.0938 35H34.5938V35.5H35.0938V35ZM35.0938 34.4L34.7479 34.0389L34.5938 34.1866V34.4H35.0938ZM66.0438 4.75L66.3896 5.11105L67.2885 4.25H66.0438V4.75ZM50.7938 4.75V4.25H50.2938V4.75H50.7938ZM50.7938 15.05V15.55H51.2938V15.05H50.7938ZM36.9437 15.05H36.4437V15.55H36.9437V15.05ZM36.9437 1.75V1.25H36.4437V1.75H36.9437ZM69.1938 6.4L69.5391 6.76161L69.5394 6.76132L69.1938 6.4ZM40.1938 4.75V4.25H39.6938V4.75H40.1938ZM40.1938 12.05H39.6938V12.55H40.1938V12.05ZM47.6438 12.05V12.55H48.1438V12.05H47.6438ZM47.6438 4.75H48.1438V4.25H47.6438V4.75ZM70.1937 35V35.5H70.6937V35H70.1937ZM56.3438 35H55.8438V35.5H56.3438V35ZM56.3438 21.75V21.25H55.8438V21.75H56.3438ZM70.1937 21.75H70.6937V21.25H70.1937V21.75ZM59.5938 24.65V24.15H59.0938V24.65H59.5938ZM59.5938 32H59.0938V32.5H59.5938V32ZM66.9938 32V32.5H67.4938V32H66.9938ZM66.9938 24.65H67.4938V24.15H66.9938V24.65ZM39.2438 34.5H35.0938V35.5H39.2438V34.5ZM35.5938 35V34.4H34.5938V35H35.5938ZM35.4396 34.7611L66.3896 5.11105L65.6979 4.38894L34.7479 34.0389L35.4396 34.7611ZM66.0438 4.25H50.7938V5.25H66.0438V4.25ZM50.2938 4.75V15.05H51.2938V4.75H50.2938ZM50.7938 14.55H36.9437V15.55H50.7938V14.55ZM37.4437 15.05V1.75H36.4437V15.05H37.4437ZM36.9437 2.25H68.1937V1.25H36.9437V2.25ZM68.1937 2.25C68.8897 2.25 69.3755 2.39124 69.6775 2.62218C69.9557 2.83493 70.1438 3.17419 70.1438 3.75H71.1438C71.1438 2.92581 70.8568 2.26506 70.285 1.82782C69.737 1.40876 68.9978 1.25 68.1937 1.25V2.25ZM70.1438 3.75C70.1438 4.31965 69.9365 4.99762 68.8481 6.03868L69.5394 6.76132C70.751 5.60238 71.1438 4.68035 71.1438 3.75H70.1438ZM68.8484 6.03839L38.8984 34.6384L39.5891 35.3616L69.5391 6.76161L68.8484 6.03839ZM39.6938 4.75V12.05H40.6938V4.75H39.6938ZM40.1938 12.55H47.6438V11.55H40.1938V12.55ZM48.1438 12.05V4.75H47.1438V12.05H48.1438ZM47.6438 4.25H40.1938V5.25H47.6438V4.25ZM70.1937 34.5H56.3438V35.5H70.1937V34.5ZM56.8438 35V21.75H55.8438V35H56.8438ZM56.3438 22.25H70.1937V21.25H56.3438V22.25ZM69.6937 21.75V35H70.6937V21.75H69.6937ZM59.0938 24.65V32H60.0938V24.65H59.0938ZM59.5938 32.5H66.9938V31.5H59.5938V32.5ZM67.4938 32V24.65H66.4938V32H67.4938ZM66.9938 24.15H59.5938V25.15H66.9938V24.15Z" fill="#383838" mask="url(#path-1-outside-1_306_537)"/>
</svg>
