<svg xmlns="http://www.w3.org/2000/svg" width="48" height="48" viewBox="0 0 48 48">
  <g id="Group_24638" data-name="Group 24638" transform="translate(-696 -322)">
    <circle id="Ellipse_5322" data-name="Ellipse 5322" cx="24" cy="24" r="24" transform="translate(696 322)" fill="#fff7ed"/>
    <path id="Icon_awesome-exclamation-circle" data-name="Icon awesome-exclamation-circle" d="M31.022,15.792A15.23,15.23,0,1,1,15.792.563,15.229,15.229,0,0,1,31.022,15.792Zm-15.23,3.071a2.825,2.825,0,1,0,2.825,2.825A2.825,2.825,0,0,0,15.792,18.863ZM13.11,8.709l.456,8.352a.737.737,0,0,0,.736.7h2.981a.737.737,0,0,0,.736-.7l.456-8.352a.737.737,0,0,0-.736-.777H13.846A.737.737,0,0,0,13.11,8.709Z" transform="translate(704.438 329.978)" fill="#ffaf52"/>
  </g>
</svg>
